/* XPM */
static char *back1706965499[] = {
/* columns rows colors chars-per-pixel */
"50 50 196 2 ",
"   c None",
".  c #040A16",
"X  c #020C1B",
"o  c #06121A",
"O  c #0B1621",
"+  c #071522",
"@  c #111C27",
"#  c #293139",
"$  c #4B281B",
"%  c #4A3B2A",
"&  c #483527",
"*  c #583927",
"=  c #6A3B23",
"-  c #733C21",
";  c #53412C",
":  c #59442F",
">  c #68462C",
",  c #704324",
"<  c #785635",
"1  c #373F45",
"2  c #3F474F",
"3  c #485058",
"4  c #81482C",
"5  c #844C30",
"6  c #8D5433",
"7  c #8E693C",
"8  c #9B7343",
"9  c #A97D46",
"0  c #A57A45",
"q  c #7D9C3A",
"w  c #7C9F45",
"e  c #ABB01F",
"r  c #869D34",
"t  c #8B9029",
"y  c #B79938",
"u  c #A49C32",
"i  c #8DA02F",
"p  c #98A62C",
"a  c #89A233",
"s  c #96A732",
"d  c #9FB23B",
"f  c #9FB725",
"g  c #A8B829",
"h  c #B9BB28",
"j  c #BEBF25",
"k  c #BBA133",
"l  c #ACBB30",
"z  c #A7B837",
"x  c #B1BF3D",
"c  c #C3A733",
"v  c #BACA1D",
"b  c #BDD011",
"n  c #AEC320",
"m  c #B7C523",
"M  c #B8C437",
"N  c #BFD03D",
"B  c #C5D31C",
"V  c #D4DD1B",
"C  c #D4DF17",
"Z  c #DEE71C",
"A  c #DFEA1E",
"S  c #DBE517",
"D  c #E6EE0F",
"F  c #E4EC1C",
"G  c #E9EF1B",
"H  c #E5EB1B",
"J  c #ECF313",
"K  c #ECF21B",
"L  c #E5F01E",
"P  c #F1F515",
"I  c #F3F817",
"U  c #F0F519",
"Y  c #F3F819",
"T  c #ECF40E",
"R  c #C6CD27",
"E  c #CCD329",
"W  c #CCD528",
"Q  c #D4DB22",
"!  c #D2DD2C",
"~  c #DBDE2D",
"^  c #D5D72B",
"/  c #C2CD37",
"(  c #CAD634",
")  c #CCD933",
"_  c #C1D23C",
"`  c #C9D53C",
"'  c #CCD83B",
"]  c #C4D532",
"[  c #D3DE33",
"{  c #D1DC39",
"}  c #DCDE30",
"|  c #DBE424",
" . c #DEE821",
".. c #D5E12B",
"X. c #DCE32B",
"o. c #DEE92B",
"O. c #D7E027",
"+. c #D5E131",
"@. c #DBE531",
"#. c #DCE43C",
"$. c #E3EB23",
"%. c #E8ED22",
"&. c #E1E52C",
"*. c #E4EB2B",
"=. c #E9EE2C",
"-. c #E0E424",
";. c #F6FA25",
":. c #F9FC24",
">. c #F3F62A",
",. c #F5F92B",
"<. c #F3F625",
"1. c #E5EB37",
"2. c #EFF336",
"3. c #ECF239",
"4. c #F1F331",
"5. c #EDF229",
"6. c #84915E",
"7. c #AE8048",
"8. c #B9864A",
"9. c #BE904D",
"0. c #86A442",
"q. c #94A745",
"w. c #9EB246",
"e. c #9AAA57",
"r. c #9AB355",
"t. c #AFA045",
"y. c #A5B856",
"u. c #AAB453",
"i. c #A6937D",
"p. c #B59B7E",
"a. c #AD9961",
"s. c #C28D4E",
"d. c #CB9B42",
"f. c #C7944F",
"g. c #C58F51",
"h. c #CD9552",
"j. c #CC9855",
"k. c #C69153",
"l. c #D09653",
"z. c #D49A53",
"x. c #DC9E53",
"c. c #DEA054",
"v. c #BCCE43",
"b. c #BBCB48",
"n. c #BDD040",
"m. c #B7C359",
"M. c #B8C773",
"N. c #B4C36B",
"B. c #C8D640",
"V. c #C2D348",
"C. c #C6D744",
"Z. c #D5E040",
"A. c #E5EE41",
"S. c #8C9C94",
"D. c #AD9C84",
"F. c #AC9F8D",
"G. c #B29E82",
"H. c #AEA18F",
"J. c #B5A693",
"K. c #B8AC9B",
"L. c #A2B499",
"P. c #8F9BA2",
"I. c #9FAAAC",
"U. c #A1ACAF",
"Y. c #BBB0A1",
"T. c #B9BBBC",
"R. c #B3C29B",
"E. c #C7D58A",
"W. c #C0CA91",
"Q. c #CFDD90",
"!. c #C7D39C",
"~. c #D0DC9F",
"^. c #CDD8AE",
"/. c #D3DEA9",
"(. c #CEDAB1",
"). c #D4DFB0",
"_. c #D5E1AB",
"`. c #D5E2B4",
"'. c #D6E1BA",
"]. c #A2BCC2",
"[. c #C2BEC1",
"{. c #AEC1C4",
"}. c #B9C7C6",
"|. c #B7C8D2",
" X c #CDC8CE",
".X c #D5DFC2",
"XX c #C9D2D3",
"oX c #DAE4C4",
"OX c #DBE3C9",
"+X c #DFE8D2",
"@X c #D8E4E7",
"#X c #EBF4F7",
"$X c #EEF5FA",
"%X c #F2F9FF",
"&X c #F3F7FE",
"*X c #E3ECED",
/* pixels */
"                                                                                                    ",
"                w.@.=.X.o.*.1.#.Z.B.{ @.=.&.+.    [ *.5.o.` / ) &.=.*.&...&.)                       ",
"                X.:.:.:.:.;.,.3.A.A.2.,.<.:.:.<.;.:.:.:.:.,.,.,.2.2.4.>.:.:.:.X.z                   ",
"              0./ *.<.>.,.2.>.;.:.,.:.,.4.>.:.:.:.:.:.;.>.:.:.4.A.1.1.4.:.:.<.*.d                   ",
"              x =.=.&.&.&.&.&.X.} @.} } ~ ~ } &.&.&.~ ~ ~ } } } } X.X.&.X.o.&.$.Q r                 ",
"              ] Y Y Y <.G K P K G G %.G U U K H -.$.K U U U %.%.G J U G G K Y P G z                 ",
"              x K P J J J J J J J J P J P J J J P P J J P J P P P T D J J J J P C a                 ",
"              y.| J T J J J J J J J J J J J J J J T J T J J J J J J J J T J J D n                   ",
"              r.! J T J D J T D J D J J T J J D T J J J J D D J J D J J J D T D f                   ",
"              r.Q P J J J J J J J J J J J D J J D J J J J J P D J D D Z | J J D n                   ",
"              w.Z J J J G J J T J J J J J J J J J J T J J J J D J T A N N L J J m                   ",
"                H J J F ( ! D J D D J J D J T J J J D J G H H J J J F ) ! J J J v                   ",
"                Q J J Z N ( G J D J J J J J J J J J J D ^ _ _ ! J J J J J J J G l                   ",
"                l G J J  .F J D J J D J J D D J J J J  ._ b.b._ F J J D J J J S a                   ",
"                q.H J J J J J J F X.^ -.J J J J J J J Z N v.v.N A J J J J J P v                     ",
"                r.Z J J J J J G [ n.v._ A J T D J J J F ( N N ! J J J J D J J g                     ",
"                w.F J J J D J G ( v.v.v.| J J J D J J J F  .$.G T L L L J J T n                     ",
"                z F D J J J J J ) v.v._ F J J J K J J J J J J J T ..N | J J P v                     ",
"                z  .J J J J J P L ! ) o.J J J J J J J J J J J J P ..'  .J J J n                     ",
"                  ! K J J J J J P K J J P J J J J J J J P P J J T T L J J J S s                     ",
"                  v.K J J J K P J J J P P P J P P T P P J P P P J P J J T P B w                     ",
"                  b.K P J o.' F P P P P P P J P P P L L J J P T P P P J P P B w                     ",
"                  N J P P o.' $.P P P T T P P P L +.Z.{ L P T P T P P P P P B q                     ",
"                  ] P P P K L J P J P P P J P J *.n.v.v...P P P P P T T P P S a                     ",
"                  M K P J P P P P J P J P P P P o.n.V.V.@.P P P P P J P P J v                       ",
"                  w.$.Y P P P P P P P P J J P J L C.n.C.$.U L L P P P J J J f                       ",
"                  N.$.P P P P P P P J P P P P Y Y L o.$.I  .` o.J P P P P J l S.                    ",
"                XXm.G P Y P P P P P P P P P %.+.o.P P P P L +.$.P P P P P I R L.                    ",
"                @XN.U I P I P U P P P P P P %.[ o.U P Y P P Y P P P P I I P N }.                    ",
"                *X(.&.I Y I Y P I I I I Y Y Y Y P Y Y P Y Y P Y I I I I Y U u.@X                    ",
"                @XR.E G F F Z A G G G A | V S S L H S ^ ..| F F  .! ....| Q e.XX                    ",
"                I.6.e.Q.~.)././.Q.Q.~.).'.(.!.E.E.!.^..XoX'._._.'.OX+XOXoX!.q.                      ",
"                  m W.&X%X%X%X%X%X%X%X%X%X%X%X%X$X$X$X$X$X$X#X$X$X#X#X#X#X.XM                       ",
"                  E u.K.K.K.K.K.J.J.J.J.J.J.H.H.H.D.D.G.G.G.i.i.i.i.i.p.p.a.h                       ",
"                  E y l.z.9 : ; : ; < l.z.0 % % % ; > j.z.7.* & & $ < z.x.d.j                       ",
"                  E k z.c.s.7 7 7 7 9 x.c.s.7 8 8 7 7.c.x.h.9 9 9 0 s.x.x.d.h                       ",
"                  E k x.x.x.x.c.c.x.c.x.x.c.c.c.c.c.c.c.z.c.x.c.c.c.c.x.x.d.h                       ",
"                  ~ c l.x.z.z.l.l.j.l.h.h.l.j.z.j.j.j.g.g.g.s.s.9.k.j.g.g.y ^                       ",
"                  $.e u t.    < 6 6 5 , *             > < 4 4 - &       t R G                       ",
"                  $.b g p       = - = $                 * - = $         M Q G                       ",
"                  $.m i           t t                     g p           ( E X.                      ",
"                  X.m h z         u.y.                    M.M.          { o.                        ",
"                  / R l i         {.].                    |.|.            {                         ",
"                    s r           [.T.                     X X                                      ",
"                                  T.XX                    XX}.                                      ",
"                                . S.}.                    U.P.+                                     ",
"                                o 3 3 O                 O 1 # X                                     ",
"                                O @ o .                   O . X                                     ",
"                                  . .                     X X                                       ",
"                                  @ O                     @ O                                       "
};
