/* XPM */
static char *_9025b5cbf24417fa8e10f2787825f38fk8wuLY29eJzqhMA[] = {
/* columns rows colors chars-per-pixel */
"50 50 231 2 ",
"   c #1F4C4E",
".  c #3C5146",
"X  c #204C57",
"o  c #295558",
"O  c #2E535D",
"+  c #395859",
"@  c #3C5F5C",
"#  c #3C605D",
"$  c #1D5869",
"%  c #185977",
"&  c #265561",
"*  c #355D61",
"=  c #295F7B",
"-  c #15667E",
";  c #1D657B",
":  c #2E676E",
">  c #38686B",
",  c #276777",
"<  c #2B6C7A",
"1  c #356877",
"2  c #37737D",
"3  c #39707E",
"4  c #485D56",
"5  c #435C5B",
"6  c #4A655B",
"7  c #56655B",
"8  c #5A665E",
"9  c #576A5D",
"0  c #445D63",
"q  c #485F65",
"w  c #436460",
"e  c #4D6563",
"r  c #416A65",
"t  c #4B6966",
"y  c #4B646A",
"u  c #4C6B6C",
"i  c #546564",
"p  c #546C63",
"a  c #596C64",
"s  c #54666C",
"d  c #546B6B",
"f  c #596D6B",
"g  c #4B766D",
"h  c #5C716C",
"j  c #456A73",
"k  c #596E70",
"l  c #48767B",
"z  c #5E7573",
"x  c #577876",
"c  c #5C7B7B",
"v  c #626A62",
"b  c #64756C",
"n  c #6B746B",
"m  c #68786B",
"M  c #70766E",
"N  c #647B74",
"B  c #657877",
"V  c #6B7D7B",
"C  c #747D76",
"Z  c #6D827C",
"A  c #77877B",
"S  c #818C7E",
"D  c #185C81",
"F  c #0A678C",
"G  c #156686",
"H  c #196483",
"J  c #166C8C",
"K  c #1C6C8B",
"L  c #157080",
"P  c #1E718B",
"I  c #0B6B95",
"U  c #126B92",
"Y  c #1C6E93",
"T  c #1C7194",
"R  c #1A769C",
"E  c #266884",
"W  c #23728A",
"Q  c #327383",
"!  c #2A6F96",
"~  c #247695",
"^  c #317E90",
"/  c #156FA0",
"(  c #0979AB",
")  c #1675A4",
"_  c #066EB6",
"`  c #047AB7",
"'  c #0475BB",
"]  c #047ABB",
"[  c #2572A4",
"{  c #557981",
"}  c #0775C1",
"|  c #037AC3",
" . c #027BCD",
".. c #007ED4",
"X. c #057FDA",
"o. c #3A828E",
"O. c #2E859F",
"+. c #198BA9",
"@. c #0B8DB7",
"#. c #0C8BBD",
"$. c #148AB5",
"%. c #1688BD",
"&. c #1695BC",
"*. c #268EA7",
"=. c #3189A7",
"-. c #258DBC",
";. c #2D95BE",
":. c #3D95B4",
">. c #3C99BB",
",. c #3EACBC",
"<. c #488987",
"1. c #4A9496",
"2. c #519695",
"3. c #6E8684",
"4. c #6B8A89",
"5. c #768885",
"6. c #749390",
"7. c #488DA9",
"8. c #4E92AD",
"9. c #4599B9",
"0. c #519AB3",
"q. c #6C9BA9",
"w. c #6D9EB7",
"e. c #49A3AA",
"r. c #51A5A6",
"t. c #46A7BB",
"y. c #58A1B6",
"u. c #64A2BB",
"i. c #0784C7",
"p. c #048DCC",
"a. c #0A8CCA",
"s. c #148BC4",
"d. c #1B8CC7",
"f. c #128BCA",
"g. c #0A95C5",
"h. c #0A98C2",
"j. c #0392CC",
"k. c #0B93CD",
"l. c #0B9ACD",
"z. c #1492C4",
"x. c #1592CB",
"c. c #1697C8",
"v. c #1C93C9",
"b. c #1C9ACD",
"n. c #0182D4",
"m. c #0B83D6",
"M. c #018BD5",
"N. c #0B8CD3",
"B. c #0384DC",
"V. c #0982DC",
"C. c #028BDD",
"Z. c #0C8CDA",
"A. c #148EDD",
"S. c #188BD8",
"D. c #0392D5",
"F. c #0C94D3",
"G. c #0599D5",
"H. c #0B99D4",
"J. c #0394DC",
"K. c #0B94DB",
"L. c #049ADD",
"P. c #0C9BDA",
"I. c #1395D3",
"U. c #1C94D5",
"Y. c #139CD3",
"T. c #1C9BD5",
"R. c #1293DC",
"E. c #1B94DB",
"W. c #119ADB",
"Q. c #258DCB",
"!. c #298CCD",
"~. c #2494C6",
"^. c #2A95C4",
"/. c #2C95CA",
"(. c #249CCC",
"). c #2A9CCB",
"_. c #3A96C2",
"`. c #3399C4",
"'. c #3D9AC2",
"]. c #3497C8",
"[. c #3297CC",
"{. c #3C9BCC",
"}. c #268ED6",
"|. c #378EDB",
" X c #2894D6",
".X c #239BD3",
"XX c #2B9BD4",
"oX c #2C94DB",
"OX c #249BDB",
"+X c #3497D6",
"@X c #1FA5C8",
"#X c #09A2DC",
"$X c #13A0D3",
"%X c #14A8D2",
"&X c #12A2D9",
"*X c #29A4CB",
"=X c #38A5C7",
"-X c #28A3D3",
";X c #30A0D2",
":X c #0485E2",
">X c #028CE4",
",X c #0C8DE5",
"<X c #0587E9",
"1X c #028EEB",
"2X c #098EEA",
"3X c #158AE4",
"4X c #0293E5",
"5X c #0A91E4",
"6X c #059AE3",
"7X c #0193EA",
"8X c #0993EB",
"9X c #029BEC",
"0X c #0999E8",
"qX c #1793E5",
"wX c #0491F0",
"eX c #039FF0",
"rX c #218FE0",
"tX c #2798E0",
"yX c #03A3E4",
"uX c #03A3EC",
"iX c #02A2EE",
"pX c #08A6EA",
"aX c #03A3F1",
"sX c #449BC4",
"dX c #459ACC",
"fX c #4D9BCA",
"gX c #529BC4",
"hX c #4396D3",
"jX c #44A3C4",
"kX c #888C82",
"lX c #889085",
/* pixels */
"6X9X9X9X9XaXaXiXiXaXiXiXiXiXiXiXiXyX#X.X=Xe.<.p p i , p.6XJ.J.v.[.9X(.'.4XT.9.sXoX2X1X7X1X4X4X6X9X6X",
"9X9X9X9X9XeXaXiXiXiXaXiXiXiXiXiXiXyX#X&X*Xt.<.p B B 2 #.L.6X6XI.'.W.).[.P.*X!.{.XX8X2X>X4X4X4X9X9X9X",
"4X4X7X9X9X9X9X9X9X9X9X9X9XiX9X9X9X9X6X#X%X,.l 4 i f 5 P z.H.L.J.).).XXXX.Xb.C.XX XwX>X>X4X4X4X9X9X9X",
"4X4X4X4X7X7X7X7X7X7X7X7X7X9X9X9X9X9X9X6Xl.~ + s d o . w 3 7.~.D.W.).U.$XoX}.g.[.rX1XJ.C.4X4X7X9X9X9X",
"4X4X4X4X4X4X7X7X7X7X7X7X7X7X7X4X7X7X1X4X( & 8 y H I X e 4 u 7.Y.p.h.M.D.U.tXOXE.>X>X4XC.4X7X7X9XeXaX",
"7X7X4X4X4X4X1X1X1X1X7X7X1X>X>X>X>X>Xm./ 1 A Z % ' N.I j 8 9 u *.W.l.I.I.F.F.qX8XC.J.5X>X4X7X9X9XaXaX",
"7X>XC.C.C.>X2X1X7XwX1X7X4X7X<X>X>XZ.) y C C = _ B.C.F.T 0 b p : $.j.Y.k.D.R.S.oXhXE.2X1X1X7X9X9XaXaX",
"7X1X2X4X4X4X5Xb.sXjX X0X4X>X<X<Xm.~ # 8 i % } B.B.D.D.@., z B s > &.4XN.k.Y.).jXw.y.K.1X1X7X9X9XaXaX",
"qX5X2X2X>XD.}.u.q.gXgX~.C.:X:Xm.Y 6 M k H ' B.:XB.J.j.g.=.1 l V 7 Q -.`.^.F.>XJ.!.q.OX1X1X7X7X9XiXaX",
"+X{.{.oX5X4XoXu.U.>Xd.0.d.>X3XK + i t G ] :XB.B.B.J.L.D.x.#.J r b y l x._.0.m.M.A.u.qX1X7X7X9X9XaXaX",
"9.[.U.~.OXqXOXsXK.B.a.9.E.i.! k lX4.Y i.m.n.n.B.C.6XL.D.M.C.n.L k b h P s.{.[.d._.dX,X7X7X7X9X9XiXaX",
">.!.C.j.T.A.A.(.K.S.{./.f.E 6 A 3.Y  .C.>Xn.B.>XC.J.6XJ.J.L.M.&.~ j 3.i E f./.0.:.K.8X7X7X7X9XiXiXiX",
"W.@X).|.oXF.K.Y.F.8.'.s.E @ h x K ] n.C.C.C.C.C.C.M.L.L.6XL.k.F.p.F c 3.5 E N.Z.m.<X5X>X7X7X9XiXiXiX",
"6XK.U.OXI.G.p.F.^./.s., 0 b 6 - | B.n.C.C.C.C.B.M.n.M.J.L.J.c.!.M.n.W V 8 # E i.<X:X2X>X7X7X9XiXiXiX",
"9.dX+X$XD.I.l.C.^.~.W d 5.3.< ( M.B.C.C.C.C.C.M.n.n.n.M.J.J.Y.9.c.R.%.; w b p ! A.:X<X>X4X7X9XiXiXpX",
"&XT.OXU.M.F.H.4Xd.l p 3.x K %.~.a.C.C.C.C.C.C.n.n.n.n.n.C.J.6X&.^.[.x.` G c kXp J V.:X>X4X7X9XiXiXpX",
"pXT.`.*X&.l.D.+.Q y m j F i.J.).U.>XD.C.C.C.B.n.n.n.n.n.M.C.L.j.N.N.M.C.i.J 4.A + T m.>X4X7X9XiXyXpX",
"`.'.(.6XM.W.$.> 7 b a ~ a.M.x.;.z.D.D.J.B.n...n.n.n.n.n.n.n.J.D.D.4X>XB.n.| R { v t T C.<X7X9XyXyX#X",
"x.H.J.D.b.*.: s V u - @.k.Q.9.;.j.D.M.M.n.n...n.n.n.n.n.n.n.M.B.D.D.C.C.n.B. .U t n * / m.7X6XyX&XY.",
"J.6XL.~.7.u a B g H  .C.j.l.l.6X6XJ.M.n.n.n.n.n.n.n.........n.B.C.C.C.C.C.>X>Xi.G d v j ( 4XL.&X-X(.",
"J.6XH.7.u 6 h z > $.M.L.L.J.J.L.C.M.n.........n.n...........n.n.n.C.C.C.C.C.B.B.| D i S : I @X*X=Xt.",
"K.6Xz.3 4 8 q , O.x.M.J.6XL.J.C.M.n.n.........n.n...........n...n.B.C.C.C.C.n.n.B.| D 5.m O o.e.r.2.",
"a.#.P w e j T @.g.D.D.J.6XL.M.M.n.n.n.........n.......n.n.n.n.....n.C.C.C.>XC.n.B.:X} E s i + r g x ",
"< 3 5 . X U F.J.p.L.L.6XL.M.n.n.n.n.n............. ...n.n.n.n.n.n.n.n.M.C.C.C.B.B.B.B.' % j i a b p ",
"s B z O F N.D.D.J.J.6XL.C.n.n.n.n.n.n.n....... . .........n...n.n.n.n.n.n.B.C.C.B.B.B.B.' , a s h # ",
"z f b x I :XB.B.B.:XC.C.n.n.n.........n.n........... .......n.n.n.n.n.n.n.M.J.6XJ.J.D.D.N.I o d B e ",
"a B 7 k % _ X.:X:XB.B.C.C.B.n.n.n.n...n.n.n..... .............n.n.n.n.n.M.L.6XL.L.j.D.F.I X . 5 3 < ",
"p t 5 i e = _ B.:XB.B.C.C.B.B.n.n.....n.n.n.n... ...n.........n.n.n.n.M.L.6XJ.D.D.g.@.T j e w P #.a.",
"2.1.<.* 7 A 1 ' B.B.n.B.C.C.C.C.n...n.n...........n.n.n.......n.n.M.C.D.L.6XJ.M.I.=., 0 8 4 3 z.6XK.",
"t.jX=XR $ A C % ' B.n.B.C.C.C.C.n.n.n.n...........n.n.n.......n.n.M.J.J.J.L.L.C.#.1 z b 9 u 7.H.6XD.",
";X-X&XG.] 1 n i ; ] C.>XC.C.C.C.C.B.n.n.........n.n.n.n.n.n.n.M.J.L.6XY.c.k.M.n.J l B p u 7.~.L.6XJ.",
"-X&XyX6X7X( > a h G  .B.B.B.C.C.J.C.M.n.......n.n.n.n.....n.B.B.D.j.&.9.!.F.&.L r V s : *.Y.D.J.I.v.",
"#XyXyX9X1X>X( > n u ~ | n.n.C.C.D.M.D.M.n.n.n.n.n.n.n...n.n.C.D.D.N.^.v.M.p.~ k b 7 > $.W.p.W.).'./.",
"pXyX9X9X7X>XZ.) # f 6.W ] C.B.C.C.j.G.C.M.n.n.n.n.n.n.n.C.C.C.D.4XZ.[.R.n.F j b y Q &.j.l.h.).).W.9X",
"pXiX9X9X4X>X>XB./ @ kXZ K ` p.v./.&.G.4XC.M.n.n.n.n.n.B.C.C.C.C.C.M.x.%.W c 3.h l -.4XY.I.M.U.XX).b.",
"pXiX9X9X7X>X>X<XV.[ d m k % (  XI.:.(.6XJ.M.n.n.n.n.M.B.C.C.C.C.B.C.` ; V 3.i P x.`.N.k.I.D.$XXX[._.",
"pXiXiX9X7X>X1X:X:X,XT @ p h 2 i.C.d.;.G.J.L.M.n.n.n.B.C.C.C.C.n.n.i.G w 8 5 E s._.^.k.D.F.U.oX.XP.4X",
"iXiXiX9X7X>X4X>X:Xn.N.T 5 B 3.K i.K.x.G.L.6XL.M.n.C.C.C.C.C.C.B.| J c b # E f.{.0.F.Y.R.F.tX}.b.*XU.",
"iXiX9X7X7X1X8X8Xf.9.].f.Y 0 5.x J z.p.D.6XJ.6XL.C.C.C.C.n.B.>X .R 4.kXp E N./.[.m.>X).S.qXOXg.C.!.:.",
"iXiX9X7X7X7X7X}.sX>.].].d.J x m x < i.C.D.D.J.6X6XB.B.n.n.B.i.U { A p ! i.Z.0.d.M.J.jXoX8XE.[.XX{.'.",
"iX9X9X7X7X7X1XdXdXM.n._.0.x.^ 6 B 6 H ] F.M.J.L.6XB.B.B.B.| G t a + J A.<Xm.:._.A.!.w.hXC.>XrX XXXoX",
"iXiX9X7X7X1X7Xy.9.C.>XN.;.].`.^ t n { , =.z.j.J.4X:XB.:X| D d n t T V.:X:X<XK.dXu.q.y.E.J.>X1XwX8X2X",
"iXaX9X7X7X1X7X'.w.sXXXY.F.v.N.x.2 i B z > +.j.D.J.B.B.} D i v > T m.:X<X2X5X8X,XqXOXK.2X5X4XJ.>X2X>X",
"aXaX9X7X7X1X2XK.fXfX[.U.I.M.H.G.$.< e V u ; k.D.J.B.' E 5.S j / C.>X>X>X>X>X7X7X1X1X1X1X>XC.C.>X>X7X",
"aXaX9X7X7X>X7X4XZ.5X8XZ.G.F.b.H.P.&.> 9 7 y U a.J.' % d m : ( m.<X4X4X4X7X7X7X7X7X1X1X1X4X4X4X4X4X>X",
"aXeX9X7X4X4X>X4XC.4XtXOX XG.M.j.g.H.:.x 6 a O F a.E j i O I 4X7X7X7X7X7X7X7X7X7X7X7X7X7X7X7X4X4X4X>X",
"iX9X9X7X4X4XC.4X2XoXv.F.|.Y.H.v.b.J.c.7.l w 4   , f i + o.@XL.6X9X9X9X9X9X9X9X9X9X7X9X9X9X7X7X4X4X4X",
"iX9X7X4X4X4XC.7X,XhXI.D.[.U.;XU.=XK.G.I.v.~ @ 4 t s a r e.*X&XyXyXiXiXiXiXiXiX9X9X9X9X9X9X9X9X9X9X4X",
"9X9X4X4X4X4X>X2XR.dXU.U.@XE.sXW.`.(.L.9X6Xk.W c i f b g r.=X-X&XyXyXiXiXiXiXiXiXiXiXiXaXaXeX9X9X9X9X",
"iX9X6X4X4X7X7X7XqX{.9.'.P.T.9.yXOX`.H.P.P.G.R u i 6 p x 1.>.(.Y.L.pXiXiXiXiXiXiXaXiXiXaXaXeX9X9X9X0X"
};
