/* XPM */
static char *d907bb75da1d4cd0dd7cf359206ca7c5b1yLGLR7bdkH9tHy[] = {
/* columns rows colors chars-per-pixel */
"50 50 225 2 ",
"   c None",
".  c #150402",
"X  c #1C0402",
"o  c #0B1F06",
"O  c #1C1B0A",
"+  c #230503",
"@  c #2B0704",
"#  c #2B0905",
"$  c #280A07",
"%  c #330603",
"&  c #350B06",
"*  c #3B0D06",
"=  c #3C0E0A",
"-  c #340E09",
";  c #3C130A",
":  c #35120A",
">  c #351A13",
",  c #2B1106",
"<  c #142B0B",
"1  c #18240B",
"2  c #0D3908",
"3  c #13350A",
"4  c #1A3C0E",
"5  c #18330B",
"6  c #172B0D",
"7  c #29390D",
"8  c #2D2D11",
"9  c #3A2A17",
"0  c #223D12",
"q  c #3D3A10",
"w  c #460C06",
"e  c #590C06",
"r  c #45140C",
"t  c #4A180C",
"y  c #51130B",
"u  c #5A160D",
"i  c #4D1B11",
"p  c #541910",
"a  c #5C1B14",
"s  c #670D0A",
"d  c #780A06",
"f  c #681D0C",
"g  c #661E13",
"h  c #79110B",
"j  c #47271A",
"k  c #5C2519",
"l  c #4A3814",
"z  c #54210F",
"x  c #6B260C",
"c  c #65220F",
"v  c #772C09",
"b  c #75310C",
"n  c #7C350A",
"m  c #7F390F",
"M  c #682816",
"N  c #742913",
"B  c #752814",
"V  c #783416",
"C  c #6F3910",
"Z  c #5B2A23",
"A  c #4B372A",
"S  c #573926",
"D  c #4C2F25",
"F  c #6F3022",
"G  c #7A3A32",
"H  c #1B4411",
"J  c #1C4916",
"K  c #1D5615",
"L  c #224415",
"P  c #2A4E1C",
"I  c #2A471A",
"U  c #314C1C",
"Y  c #26571C",
"T  c #3F531A",
"R  c #2A611E",
"E  c #3A4921",
"W  c #2C5820",
"Q  c #365525",
"!  c #326D25",
"~  c #366629",
"^  c #377428",
"/  c #36692A",
"(  c #494317",
")  c #5A4819",
"_  c #4B571A",
"`  c #55581D",
"'  c #6F441B",
"]  c #5C4728",
"[  c #495628",
"{  c #515F20",
"}  c #434C21",
"|  c #765927",
" . c #774538",
".. c #674F29",
"X. c #426F2F",
"o. c #467733",
"O. c #880B08",
"+. c #8A140D",
"@. c #8C1F18",
"#. c #8F3608",
"$. c #843D0C",
"%. c #853509",
"&. c #863C10",
"*. c #953713",
"=. c #91352C",
"-. c #A63F33",
";. c #8A430E",
":. c #8D4A11",
">. c #844818",
",. c #944C13",
"<. c #945315",
"1. c #9C5616",
"2. c #9E5D1B",
"3. c #96551B",
"4. c #914915",
"5. c #A55B1A",
"6. c #A65919",
"7. c #B2451B",
"8. c #AA651E",
"9. c #A1621E",
"0. c #B3661E",
"q. c #994825",
"w. c #975928",
"e. c #885937",
"r. c #8D4C2C",
"t. c #B64F28",
"y. c #BF592E",
"u. c #AC503F",
"i. c #AF512B",
"p. c #8D6C2C",
"a. c #85632A",
"s. c #9F6E38",
"d. c #946033",
"f. c #9A7432",
"g. c #AC6A23",
"h. c #A56725",
"j. c #B06A22",
"k. c #B36F28",
"l. c #B37327",
"z. c #BC7C2B",
"x. c #B5762A",
"c. c #AB7838",
"v. c #B57B33",
"b. c #C27F2D",
"n. c #D67634",
"m. c #D86626",
"M. c #E27E35",
"N. c #825A44",
"B. c #A65C4C",
"V. c #BC6746",
"C. c #A76A5D",
"Z. c #AA6F4B",
"A. c #9F7166",
"S. c #A47566",
"D. c #AA7D71",
"F. c #C97B47",
"G. c #D0714B",
"H. c #3D8328",
"J. c #4A8835",
"K. c #4A9430",
"L. c #508440",
"P. c #5C9F42",
"I. c #BE8432",
"U. c #BB853E",
"Y. c #B8853B",
"T. c #C4832D",
"R. c #C9862E",
"E. c #CA8C33",
"W. c #C48939",
"Q. c #CD9536",
"!. c #CB923B",
"~. c #C79037",
"^. c #D29136",
"/. c #D39C3C",
"(. c #D89A3A",
"). c #E88836",
"_. c #D8A33F",
"`. c #E0A43E",
"'. c #B98849",
"]. c #BC9454",
"[. c #B98A7E",
"{. c #CA9645",
"}. c #D29D43",
"|. c #D49D48",
" X c #C79A53",
".X c #CB8B4C",
"XX c #D7A343",
"oX c #DAA443",
"OX c #DEAA45",
"+X c #DBA94B",
"@X c #DAAC57",
"#X c #CBA057",
"$X c #E2AD45",
"%X c #E1AF48",
"&X c #E4B34C",
"*X c #ECB549",
"=X c #ECB94D",
"-X c #E8B247",
";X c #E3B354",
":X c #EABC52",
">X c #E6BA56",
",X c #D79669",
"<X c #DB9471",
"1X c #C68462",
"2X c #D8B26D",
"3X c #EDC45A",
"4X c #EFC356",
"5X c #F1CB5E",
"6X c #F3CF61",
"7X c #F4D264",
"8X c #F6D568",
"9X c #BE958C",
"0X c #B6948B",
"qX c #C69B87",
"wX c #CC9D8E",
"eX c #C4A79F",
"rX c #C9A298",
"tX c #D4AD8A",
"yX c #E2B197",
"uX c #D3ADA3",
"iX c #D9B5A9",
"pX c #DABFB7",
"aX c #E3BDAD",
"sX c #DAC4BD",
"dX c #DDC8C0",
/* pixels */
"                                                                                                    ",
"                                                                                                    ",
"                                                                                                    ",
"                                                                                                    ",
"                                                                                                    ",
"                                                                                                    ",
"                                                                                                    ",
"                                                                                                    ",
"                                                                                                    ",
"                                                                                                    ",
"                                          w.h.v.{.}.{.!.{.'.s.                                      ",
"                                      V 3.z.XX%XoXoXoXOXOXOX|.Y.d.                                  ",
"                                  x $.g.!.OX&X_.oX&X:X:XoX/.}./.I.s.                                ",
"                                N b 3.z.}.OX/.XX;X5X3X3X&X$X/.Q.T.g.>.                              ",
"                              x v <.g.I./.~./.&X3X8X7X5X:XOX!.!.z.l.2.'                             ",
"                            M x b :.h.I.~.E.Q.&X5X8X7X7X:X}.W.{.v.9.1.>.                            ",
"                            V N n <.9.v.T.Q.XX:X5X7X7X5X3XoX~.I.x.2.:.;.V                           ",
"                          b b x n <.2.8.R.(.$X=X3X5X6X6X:XoXE.T.k.2.<.$.n                           ",
"                          V %.v n :.<.g.^.$X-X*X=X4X6X5X&X^.b.z.g.<.,.$.n M                         ",
"                          $.#.#.#.:.3.g.E._.-X*X=X4X5X:X(.R.b.z.g.<.:.$.n b                         ",
"                          &.#.*.,.1.2.8.z.E.`.$X&X&X&XoX(.R.z.g.5.6.:.%.%.m                         ",
"                    W 5 8 C &.,.1.5.8.j.z.R.(.$XoXoX}.(.(.^.E.z.j.6.;.n n C 7 J Y                   ",
"                    ! R H 0 7 q l ) ' ' | a.p.p.p.p.p.f.f.f.p.a.| ) ( ( q U Y ! ~                   ",
"                    R ! ^ K 2 Y Y 2 3 H I 4 I 0 4 P L 0 5 0 H Y ~ P ~ Q U X.L.o.                    ",
"                    / J.R 3 P W 4 3 0 Q L L Q I 1 1 o o 2 K ^ E j t l t y z E                       ",
"                      W E & 9 8 # * w y ; : & r w % O < P o.[ p d O.+.O.O.d                         ",
"                        [.G g u s s h @.=. .Z a s e * , ; i e d +.-.B.=.=.C.                        ",
"                      0XeXeX9X[.9X9XwXuXuXeXrXS.N...} _ _ _ ` { ..S.rXiXpXsXdX                      ",
"                        B.C.D.[.wXuXiXiXwX1XV.e.[ o.H.H.K.K.P.J.] V.<XyXaXiXwXqX                    ",
"                      t.B ; ; V y.n.n.n.M.).).n.a.} < o < 1 6 8 c *.7.y.G.<X,X.X                    ",
"                    y.N + @ @ # f 7.M.).).M.m.t.>.> X X + + X + @ % * p M q.F.<XtX                  ",
"                        # p i i & w *.F.F.i.B r = & w e u c  .Z y a M k ; $ y q.B.                  ",
"                        $ ; = r ; + * N k r t i M p a g f F A.G y a k = - X .                       ",
"                          ; : $ $ + X . . + & & & & w w * # $ % % + # , > j j                       ",
"                          q.w.e.e. .S A ] A j j D A > : > > 9 S N.e.e.d.w.q.                        ",
"                          6.0.j.k.U.{. X X X X#X2XtX].'.'.'.'.'..XW.k.g.6.4.                        ",
"                          3.5.5.g.l.I.E.Q.Q./.oX@X@X>X:X&XXX!.!.z.z.l.8.5.>.                        ",
"                              3.w.c.Y.W./._./.oX;X;X3X7X>X+X|.|.U.v.h.w.>.                          ",
"                                        c.c.Y.'.]. X@X2X#X'.'.Z.                                    ",
"                                                                                                    ",
"                                                                                                    ",
"                                                                                                    ",
"                                                                                                    ",
"                                                                                                    ",
"                                                                                                    ",
"                                                                                                    ",
"                                                                                                    ",
"                                                                                                    ",
"                                                                                                    ",
"                                                                                                    "
};
