/* XPM */
static char *_2_removebg_preview1706967515[] = {
/* columns rows colors chars-per-pixel */
"50 50 216 2 ",
"   c None",
".  c #150905",
"X  c #190A07",
"o  c #150B0B",
"O  c #1D0C0A",
"+  c #160705",
"@  c #1C110D",
"#  c #180F12",
"$  c #1C1314",
"%  c #1C161B",
"&  c #1E191D",
"*  c #1E1916",
"=  c #230E0C",
"-  c #280F0B",
";  c #24110C",
":  c #2B120E",
">  c #33140F",
",  c #251414",
"<  c #2B1413",
"1  c #22171A",
"2  c #241A1C",
"3  c #2A1B1C",
"4  c #2B1818",
"5  c #341613",
"6  c #351915",
"7  c #3C1A14",
"8  c #331B1C",
"9  c #3C1D1A",
"0  c #361615",
"q  c #2C221B",
"w  c #23201F",
"e  c #36211C",
"r  c #1E1A21",
"t  c #181B25",
"y  c #1E1F30",
"u  c #241D23",
"i  c #291E25",
"p  c #251E2B",
"a  c #291D2A",
"s  c #321E23",
"d  c #3B1F21",
"f  c #201E34",
"g  c #271F39",
"h  c #1E2935",
"j  c #1C2933",
"k  c #252026",
"l  c #282027",
"z  c #24232A",
"x  c #2C222A",
"c  c #212C26",
"v  c #342023",
"b  c #3B2223",
"n  c #3A292A",
"m  c #243225",
"M  c #2A3A2C",
"N  c #273729",
"B  c #3F3427",
"V  c #232A34",
"C  c #232E3A",
"Z  c #232334",
"A  c #2D3C33",
"S  c #24303B",
"D  c #323F35",
"F  c #421A15",
"G  c #421D1A",
"H  c #521F1B",
"J  c #44221E",
"K  c #4A211E",
"L  c #462818",
"P  c #502117",
"I  c #432323",
"U  c #4B2624",
"Y  c #42262A",
"T  c #4B2629",
"R  c #4C292B",
"E  c #462A28",
"W  c #532624",
"Q  c #532B2C",
"!  c #5C2B2C",
"~  c #572726",
"^  c #462B32",
"/  c #552C31",
"(  c #5B2E32",
")  c #4A3233",
"_  c #543334",
"`  c #5C3236",
"'  c #5C3339",
"]  c #612E34",
"[  c #643335",
"{  c #62343B",
"}  c #69363A",
"|  c #65393D",
" . c #6B393D",
".. c #602E2E",
"X. c #2A4135",
"o. c #334234",
"O. c #354539",
"+. c #3A4A3A",
"@. c #4F5331",
"#. c #6B5A29",
"$. c #7A663F",
"%. c #1C3949",
"&. c #193F50",
"*. c #223342",
"=. c #23394A",
"-. c #293948",
";. c #263E52",
":. c #5E3C42",
">. c #653941",
",. c #6A3C44",
"<. c #6D3E48",
"1. c #653740",
"2. c #713D46",
"3. c #1B4356",
"4. c #3C4F43",
"5. c #3E5448",
"6. c #23485D",
"7. c #335453",
"8. c #1D566C",
"9. c #1C5574",
"0. c #274C63",
"q. c #245B76",
"w. c #1F6277",
"e. c #286878",
"r. c #32646F",
"t. c #445649",
"y. c #495C53",
"u. c #6E424B",
"i. c #694545",
"p. c #71434C",
"a. c #724346",
"s. c #724652",
"d. c #744A54",
"f. c #7A4C56",
"g. c #754C5A",
"h. c #7A4E5B",
"j. c #7A515D",
"k. c #6E4551",
"l. c #56685C",
"z. c #794E61",
"x. c #7C5363",
"c. c #7C566B",
"v. c #7B586A",
"b. c #6E586A",
"n. c #5B6E62",
"m. c #5C7064",
"M. c #686966",
"N. c #607065",
"B. c #907933",
"V. c #895D5E",
"C. c #8F7550",
"Z. c #805667",
"A. c #81686A",
"S. c #B8776A",
"D. c #B27678",
"F. c #A96868",
"G. c #C47B6C",
"H. c #D77968",
"J. c #C77876",
"K. c #D17F7B",
"L. c #E77C6B",
"P. c #E27D70",
"I. c #75903C",
"U. c #7E9C46",
"Y. c #778C59",
"T. c #74897B",
"R. c #75846D",
"E. c #82813B",
"W. c #9C8939",
"Q. c #AC8937",
"!. c #B0A13F",
"~. c #9DD635",
"^. c #97CD33",
"/. c #A3D33B",
"(. c #919A45",
"). c #90954D",
"_. c #B3904C",
"`. c #92A35A",
"'. c #8AAB42",
"]. c #A7A65B",
"[. c #A2BF5C",
"{. c #8E906B",
"}. c #98B16B",
"|. c #A7B76A",
" X c #CFA844",
".X c #D58778",
"XX c #EB816F",
"oX c #EA8474",
"OX c #E3857B",
"+X c #EA8679",
"@X c #E88777",
"#X c #9AC045",
"$X c #A1C357",
"%X c #226A81",
"&X c #7B7382",
"*X c #90709A",
"=X c #BC7D82",
"-X c #9171A7",
";X c #C37280",
":X c #7C9386",
">X c #7A9488",
",X c #85998B",
"<X c #8A9E92",
"1X c #908B8C",
"2X c #B58E94",
"3X c #8DA394",
"4X c #9BAD9E",
"5X c #95A997",
"6X c #97AA97",
"7X c #A3B79E",
"8X c #9E94B6",
"9X c #9AB3A4",
"0X c #A4B8A6",
"qX c #D48689",
"wX c #D0898E",
"eX c #A8C1AF",
/* pixels */
"                                                                                                    ",
"                                                                                                    ",
"                                                                                                    ",
"                                                                                                    ",
"                                                                                          }.|.      ",
"                                                                                            W.!.    ",
"                                                                                            ).W.).  ",
"                                                      ) ) _ _ ' ' ' )                           ].  ",
"                                              E R Q _ ` ..] [ { >.>.{ ] / Q ^                   `.].",
"                                        E E R ~ ..` ( | i.<.>.>.>.<.>.} ] R T Y n           |.`.    ",
"                                      K W ~ ..}  .[ | a.V.p.s.s.s.s.u. .{ ( R I b e       |.`.      ",
"                                  J L P ..[ 2.a.p.a.a.f.Z.Z.f.f.g.k.u.,.{ [ Q T I e k q {.}.        ",
"                                e F H ~ [  .a.p.g.g.g.j.Z.Z.V.2.s.k.u.<.| { _ U J e e 3 B           ",
"                            w 4 > F ! .. .p.s.f.z.z.z.c.z.Z.f.2.d.u.<.>.` ` Q T b e 8 q w V         ",
"                            8 7 F H [  .,.p.d.g.x.v.v.v.c.x.g.s.d.u.<.>.Q Q R E b d 8 3 k z         ",
"                            2 9 P ! [  .>.<.s.g.z.x.c.c.c.x.s.p.<.1.{ ( R U R U b d 8 s k z h       ",
"                            % * 9 W [ }  .u.s.f.d.d.h.z.x.f.<.u.1.` ( / R I Y I d s 4 4 2 k z %.    ",
"                              % * 8 Q ,.2.u.s.s.k.u.<.s.s.s.<.>.{ ( / / ^ I I I s s 4 < , 1 z S     ",
"                              t % $ 3 / u.d.g.g.g.s.k.<.<.,.' ' { ( _ Q R I I I d 0 < = 1 2 z C     ",
"                                % % u i ^ k.g.g.z.g.k.u.>.{ ' ' { [ ~ Q T I U I 4 < , = , u k C =.  ",
"                                t r r k i Y i.g.x.g.s.u. .' ( Q ( ! ~ U U I J e 0 < < = 1 i l C =.  ",
"                                  r r i i i n i.h.d.s.u.>.` / R W W K K J G 9 6 < < < , , 4 i C -.  ",
"                                    u i i i u v :.d.s.>.1.' / T U U G G G G 6 6 < = = = , i a C -.  ",
"                                    t k x x u 2 s _ ,.1.' ' R T Q U G G G 7 7 6 < = X X 1 4 u Z S -.",
"                                      u x x x x i i / [ / Q U U K G 9 G F F e 7 5 = = X , 2 i V V -.",
"      wX                                p x x x l u s Q ~ G J I U 7 7 G F 7 6 6 : = O O , 2 k V S -.",
"    wXOXJ.                                p x x l i i s I G G J J 7 7 7 F 7 > : - = = X , 2 z V -.  ",
"    qX+XJ.                                f a x i x i a s e F 7 7 6 6 7 7 > : ; = O O ; , 3 z C ;.  ",
"    qX+XF.                                  j i i p l k i e 7 7 6 : > > 5 = = O + + O = 4 u Z *.6.  ",
"    qX@X=X8X                                  f i l l k i l s 9 > : ; : = + X O X O = < 3 i V =.0.  ",
"      OXS.2X                                    g a k x i k i v 0 : ; ; + + O = O O = , 2 k C 6.r.  ",
"      OX.XG.                                      f & u 2 u k i 8 < O O X X O o o # , 1 u Z C 0.    ",
"    wXOX@XH.K.                                      y p a u u 2 2 3 O X . X @ . o # & 2 k C &.8.    ",
"    qX@XoX@XOX                                        f p i u r & 2 , . X O o o o # % w k %.9.w.    ",
"    @X+XoXXXoXK.                                        Z i i r & & 2 ; @ X . o # # $ & j 6.q.      ",
"  OX@XoXXXXXL.XXK.                                        k u u r 2 1 2 o . . . # # % j %.9.%X      ",
"  +XXXL.oX+XXXL.P.                                          q 2 & r & & 1 O X @ * & y h 0.%X        ",
"D.OXoXL.L.oX+X@XL.H.                                            2 & r & 1 , @ * k y h 3.w.e.        ",
"b.V.S.G.L.H.H.+XoXP.                                              1 & & & , < $ * h &.8.e.          ",
"M.{.'.I.E.E.C.D.;X                                                  , 1 & , 4 , t %.8.e.            ",
"{.|.$X/.~.~.#X{.v.                                                    $ q 7 7 e S 3.e.e.            ",
"Y.1X1X$X^.~.^.I.U.            5X0X0X0X4X4X4X9X4X<X  5X0XeX0X6X3X6X      $.Q.W.#.A 6.r.              ",
"b.*X-X,XU.I.'.E.).0X6X7X5X4X4X,X3X5X<X,X,X,X>XT.R.:XT.>X>X>X>X>X,X<X3X,X`.!. XQ.#.7.                ",
"  D.F.M.Y.  )..XV.N.N.N.m.l.n.l.l.n.l.l.l.n.l.l.5.t.y.y.y.5.5.4.t.5.t.y.t.#.$._.W.                  ",
"  .XS.        D.#.+.t.+.o.+.4.o.O.O.o.+.X.O.X.4.A o.o.A M X.N N m c m M m N @.                      ",
"                                      M N M N O.A N N N c M m N m                                   ",
"                                                                                                    ",
"                                                                                                    ",
"                                                                                                    ",
"                                                                                                    "
};
