/* XPM */
static char *_b7a5aaca8e74e7ac54cfafb60d6cc1btzp9ZdW7P3uTtxyd[] = {
/* columns rows colors chars-per-pixel */
"50 50 117 2 ",
"   c None",
".  c #1F0D0D",
"X  c #1F1111",
"o  c #210E0F",
"O  c #240F11",
"+  c #280F12",
"@  c #241213",
"#  c #2B1215",
"$  c #251618",
"%  c #2C1518",
"&  c #261A1B",
"*  c #2A1B1C",
"=  c #301417",
"-  c #33161A",
";  c #3B171B",
":  c #36191D",
">  c #3A191E",
",  c #29201F",
"<  c #2A1E20",
"1  c #3D1B21",
"2  c #2C2324",
"3  c #2E2728",
"4  c #2E2A2B",
"5  c #342327",
"6  c #3E2225",
"7  c #3E2826",
"8  c #312628",
"9  c #3B252B",
"0  c #312D2E",
"q  c #3B292C",
"w  c #332F32",
"e  c #343333",
"r  c #3F3734",
"t  c #31333A",
"y  c #353A3A",
"u  c #3A3B3E",
"i  c #40181F",
"p  c #431D25",
"a  c #481F27",
"s  c #451E28",
"d  c #491F28",
"f  c #422126",
"g  c #482027",
"h  c #452329",
"j  c #4B232C",
"k  c #51242E",
"l  c #4E2630",
"z  c #412F34",
"x  c #4B2F35",
"c  c #522731",
"v  c #542A33",
"b  c #592A35",
"n  c #562E39",
"m  c #5C2E3A",
"M  c #463339",
"N  c #54353A",
"B  c #5E313D",
"V  c #612F3C",
"C  c #61313E",
"Z  c #36413F",
"A  c #3B413F",
"S  c #393C40",
"D  c #5E3440",
"F  c #653542",
"G  c #683743",
"H  c #673845",
"J  c #693945",
"K  c #683949",
"L  c #6D3949",
"P  c #6F3A49",
"I  c #6E3B49",
"U  c #6E3B4A",
"Y  c #374040",
"T  c #364241",
"R  c #364040",
"E  c #3A4745",
"W  c #394B46",
"Q  c #3B4E4B",
"!  c #3E4F51",
"~  c #3E5551",
"^  c #404A46",
"/  c #515141",
"(  c #405153",
")  c #405356",
"_  c #405752",
"`  c #435C55",
"'  c #4B5A54",
"]  c #40585A",
"[  c #455E5B",
"{  c #445F5B",
"}  c #46655B",
"|  c #49675D",
" . c #50675E",
".. c #455861",
"X. c #4E6B61",
"o. c #4F6D6D",
"O. c #8D8A4D",
"+. c #958A48",
"@. c #968A49",
"#. c #938E4B",
"$. c #919051",
"%. c #999C5F",
"&. c #A09349",
"*. c #909860",
"=. c #989B61",
"-. c #9A9D69",
";. c #95A16D",
":. c #9BA369",
">. c #9FA369",
",. c #9FA26D",
"<. c #94A573",
"1. c #9AA370",
"2. c #9FA870",
"3. c #A1A361",
"4. c #A2A464",
"5. c #A4A469",
"6. c #ACAE6D",
/* pixels */
"                                                                                                    ",
"                                                                                                    ",
"                                                                                                    ",
"                                                                                                    ",
"                                                                                                    ",
"                                                                                                    ",
"                                                                                                    ",
"                                                                                                    ",
"                                                                                                    ",
"                                                                                                    ",
"                                                                                                    ",
"                                                                                                    ",
"                                                                                                    ",
"                                                                                                    ",
"                                                                                                    ",
"                                                                                                    ",
"                                                    =.,.>.                                          ",
"                                          4.%.5.6.3.#.+.&.+.-.                                      ",
"                                        ;.O.$.    *.                                                ",
"                                                  <.                                                ",
"                                                  2.                                                ",
"                                                  :.                                                ",
"                                                  1.                                                ",
"                                                r /                                                 ",
"                                      w 8 2 & # # # % % % < 5 q                                     ",
"                                u t 0 2 @ + o + # = = : > 1 > > 1 9                                 ",
"                            y e e 0 2 @ o + + % = - 1 p p p i p p p 1 q                             ",
"                        ..S e 0 3 , $ o o + + # = : f h p s j c v j 1 > 1                           ",
"                      ) y 4 0 < $ $ @ @ + + # : 1 > 1 f h j c m n l s p p f M                       ",
"                    ( T 3 3 2 $ @ @ @ @ + + # 1 f h h h j v m B B B m m k s 6 z                     ",
"                  ! y 3 * < $ @ @ @ @ # # + = 1 j j p s j v C H G F m F C g p f                     ",
"                ] T 0 < * & $ @ $ @ # # # % : p j h h j c m C F G G b k m v j j h                   ",
"              { W e 4 3 * @ @ * * % # # # # = : 1 d j d j m b F U U G V C F D j s 9                 ",
"              { Z 4 3 2 & @ @ @ + + # # @ # # = 1 j j p d v c m F U U G F H K m d 1                 ",
"            o.` y 2 & & $ @ @ @ + + @ @ @ @ # = 1 j j p d v j k b G G G H F H F j s 9               ",
"            ` E w 2 $ X X @ @ @ @ O + @ @ @ @ # = s p p j v c c V G B F G B v c j d g               ",
"           .Q e 4 < X X X @ @ @ @ . O . O @ @ @ % > > > a b m F F b b C G m v j j j s h             ",
"          X.Q e e 2 X @ O @ @ @ O . . o @ # # # = > > 1 j b C G m b b m G F m c j j s 1             ",
"          X.~ u 4 & X @ O @ o o o o O @ @ # % = 1 1 > 1 j b m B B B v C G G B c s p > 1 q           ",
"          } Q u < @ @ @ @ o . . . o @ @ # = : : p p 1 1 s j l c B D m m m m m j p 1 > 1 7           ",
"        X._ y e & @ @ @ . . . . o O @ @ # : 1 1 1 h 1 1 j v j j v B F B b b c p 1 1 1 1 6           ",
"        X.~ y 0 & @ & @ @ o O @ @ @ @ @ # = 1 1 1 p 1 s v b j j c v B D m k s 1 1 1 > > 6           ",
"        | ~ y 4 * @ @ @ % # # % # @ @ @ # # : 1 1 1 p j v v j j v v v n c j s 1 1 1 : > 6           ",
"        } ~ e 3 & @ @ @ @ @ @ % % # # @ @ # # = > 1 1 p j b v j j k v v c k d 1 1 > > 1 f           ",
"        | Q e 3 & 2 * @ @ @ @ # % @ # @ @ # # = : 1 1 j C C v j p 1 j v v j p p p 1 1 1 f           ",
"        ` T y e 3 3 2 & @ @ @ # # @ @ @ # # # # = > 1 h v v v h > > p j j s s h p > > > 1           ",
"        ' ^ A A e 0 4 3 * @ @ @ @ @ @ # # % # # % = : > p v v h > > 1 h j j j h 1 > > 1 h           ",
"                  u e 4 * @ @ @ @ @ @ @ # @ @ + # # = : 1 p p 1 1 1 1 f f g s p 1 6 h               ",
"                            * & & % % # @ @ @ + + @ # # - ; > p h h g 1 1 f h                       ",
"                                                5 5 5 9 6 1 h x N N                                 "
};
