/* XPM */
static char *result[] = {
/* columns rows colors chars-per-pixel */
"50 50 101 2 ",
"   c #DF0F67",
".  c #E0146A",
"X  c #E1196E",
"o  c #E21D71",
"O  c #E32274",
"+  c #E52B79",
"@  c #E8337F",
"#  c #E73480",
"$  c #E83782",
"%  c #E83B84",
"&  c #EA438A",
"*  c #EC498E",
"=  c #ED4F92",
"-  c #EE5595",
";  c #EF5798",
":  c #EF5A99",
">  c #F05D9C",
",  c #F0629E",
"<  c #F164A0",
"1  c #F36BA5",
"2  c #F474AB",
"3  c #F579AE",
"4  c #F67DB1",
"5  c #F784B5",
"6  c #F887B7",
"7  c #F788B7",
"8  c #F888B7",
"9  c #F787B8",
"0  c #F887B8",
"q  c #F789B9",
"w  c #F889B9",
"e  c #F793BE",
"r  c #F893BE",
"t  c #F797C0",
"y  c #F896C1",
"u  c #F79CC3",
"i  c #F89CC3",
"p  c #F7A1C6",
"a  c #F8A2C7",
"s  c #F7A5C9",
"d  c #F8A6C9",
"f  c #F7ACCC",
"g  c #F8ACCC",
"h  c #F6B1CE",
"j  c #F8B0CF",
"k  c #F7B5D1",
"l  c #F8B3D1",
"z  c #F5BBD4",
"x  c #F8BAD4",
"c  c #F7BFD8",
"v  c #EFC2D5",
"b  c #EACBD7",
"n  c #EDCCD9",
"m  c #F2C0D5",
"M  c #F7C4DA",
"N  c #F8C2DA",
"B  c #F6CBDD",
"V  c #F8C9DD",
"C  c #E6D2D9",
"Z  c #EAD1DB",
"A  c #E3DADC",
"S  c #EAD8DF",
"D  c #F3D1DF",
"F  c #D6E3DA",
"G  c #DAE4DD",
"H  c #D3EBDD",
"J  c #D9E9DE",
"K  c #E1E2DF",
"L  c #F7CFE1",
"P  c #F8CEE0",
"I  c #E7DFE0",
"U  c #EDDEE3",
"Y  c #F6D2E1",
"T  c #F8D3E3",
"R  c #F4DAE5",
"E  c #F8D9E7",
"W  c #F6DFE9",
"Q  c #F8DDE9",
"!  c #D7EFE1",
"~  c #DBEDE2",
"^  c #D6F4E3",
"/  c #DBF3E5",
"(  c #DEF5E8",
")  c #E5E5E3",
"_  c #EBE3E5",
"`  c #E5EAE5",
"'  c #E8E8E6",
"]  c #EEE5E8",
"[  c #E7EEE8",
"{  c #EBEDEB",
"}  c #F0E1E7",
"|  c #F4E5EB",
" . c #F2EBEE",
".. c #E1F1E7",
"X. c #E5F4EB",
"o. c #ECF1ED",
"O. c #F0F0EF",
"+. c #F5EFF1",
"@. c #EDF6F1",
"#. c #F4F2F3",
"$. c None",
/* pixels */
"$.$.$.$.$.$.$.$.$.$.$.$.$.$.$.$.$.$.$.$.$.$.$.$.$.$.$.$.$.$.$.$.$.$.$.$.$.$.$.$.$.$.$.$.$.$.$.$.$.$.",
"$.$.$.$.$.$.$.$.$.$.$.$.$.$.$.$.$.$.$.$.$.$.$.$.$.$.$.$.$.$.$.$.$.$.$.$.$.$.$.$.$.$.$.$.$.$.$.$.$.$.",
"$.$.$.$.$.$.$.$.$.$.$.$.$.$.$.$.$.$.$.$.$.$.$.$.$.$.$.$.$.$.$.$.$.$.$.$.$.$.$.$.$.$.$.$.$.$.$.$.$.$.",
"$.$.$.$.$.$.$.$.$.$.$.$.$.$.$.$.$.$.$.^ ^ ^ / ^ / ^ / ^ ^ / ^ $.$.$.$.$.$.$.$.$.$.$.$.$.$.$.$.$.$.$.",
"$.$.$.$.$.$.$.$.$.$.$.$.$.$.$.$.$.$.{  .| | | | | | | |  .|  .{ $.$.$.$.$.$.$.$.$.$.$.$.$.$.$.$.$.$.",
"$.$.$.$.$.$.$.$.$.$.$.$.$.( ( ....' Y N f d g d d g g s g j c Y ' ....( / $.$.$.$.$.$.$.$.$.$.$.$.$.",
"$.$.$.$.$.$.$.$.$.$.$.$.~ | | E R P k s i t t t r r t t r r i x B R R |  .~ $.$.$.$.$.$.$.$.$.$.$.$.",
"$.$.$.$.$.$.$.$.$.( X.o.U M g d a i t a j l l l j x l l i q q r i i i f M R { X.( $.$.$.$.$.$.$.$.$.",
"$.$.$.$.$.$.$.$.H } Q P x s y q e i p s x k f g g f f f u q q 0 9 0 0 r d x P Q ] ! $.$.$.$.$.$.$.$.",
"$.$.$.$.$.$.$.~ } V h i e e w r f k k x x a e w q 7 q 7 5 5 4 5 5 4 5 5 q e u f M } ~ $.$.$.$.$.$.$.",
"$.$.$.$.$.$.F n x g d a a i r q i s s s a e 5 > = = = = = = = = = - = : 1 4 9 t g k n F $.$.$.$.$.$.",
"$.$.$.$.$.^ R s q e s k x f i q 7 5 5 4 5 5 2 & O O o o o X X X o O O $ : 2 5 0 q q a R ^ $.$.$.$.$.",
"$.$.$.$.! _ M i r s l x f i q 5 2 : * & * 1 3 - % $ $ $ O .   . + & = > 1 4 0 0 w w u M U ! $.$.$.$.",
"$.$.$.$. .V g y i k c x a q 0 4 : % X   X = 2 1 , > > > * + O + * < 2 3 2 2 2 4 w w e g V  .$.$.$.$.",
"$.$.$.$. .x y w i k c x a q 0 1 % O .   . & < 2 3 3 3 3 1 , , < 2 2 1 - % $ % , 5 9 w y x | $.$.$.$.",
"$.$.$.$.| x r w r g l g u w 0 2 % o .   . $ > 3 6 6 5 6 w 5 5 3 1 > = $ X . + > 5 q w y x  .$.$.$.$.",
"$.$.$.$.+.V f e q r e e w 0 6 3 - $ X   X $ > 2 7 8 w w 0 5 2 > % + O o . + * 1 6 w e g V  .$.$.$.$.",
"$.$.$.A B Y V s y w 9 9 w 5 6 5 2 ; & % % - 1 5 5 8 5 q w 5 3 , * % % % % - < 3 w r g M Y Y A $.$.$.",
"$.$.[ m s P W M s q 6 q 5 w w 6 5 4 3 3 3 4 5 6 q 8 w 6 w 5 5 4 3 3 3 3 3 4 4 6 q a N Q P s m { $.$.",
"$.$. .x t f x f a q 6 0 w w 5 w 5 q 7 7 0 0 5 w 0 w 0 w w w 0 w 0 6 6 0 5 w w 0 q i g x f e x { $.$.",
"$.$.{ z u e e q w w 5 w 0 0 w 0 0 0 5 w 6 0 6 6 0 w 6 w w 6 w 6 5 w 0 6 w 8 8 7 w w e e r u z { $.$.",
"$.$.$.A M h a e w 6 6 w w w 6 w 0 w 0 6 w w w 0 w 6 w 0 0 w w 0 6 w w w 8 8 7 8 w w q a l M A $.$.$.",
"$.$.$.$.' T x s r r w q 7 6 6 6 6 5 8 6 6 6 5 w 6 w 6 w 0 9 6 6 5 q w 5 w w e e i q i x Y ' $.$.$.$.",
"$.$.$.$.$.` | E V x i q 5 q 7 6 7 w w q 9 w w 8 w 6 w 0 0 6 q 0 0 6 q 9 q u f M M a i P ` $.$.$.$.$.",
"$.$.$.$.$.$.X.#.W x d i i s d a i r w q t q 0 0 6 6 0 0 6 w r r w r a s s x B ] ) z l B K $.$.$.$.$.",
"$.$.$.$.$.$.$.X.E d a k B R Q E x d y i g i q 9 q q q q q q a g e p V Q Q |  .$.$.K D h z ) $.$.$.$.",
"$.$.$.$.$.$.$.S M k M T ) ..@.| c g g N Y N l j g l g j j l M P j s N Q #.o./ $.$.$.K v x V A $.$.$.",
"$.$.$.$.$.! U h h R  .{ $.$...W f f R  .+. . .|  .|  .| | | +.| B h p x | / $.$.$.$.$.' B s m [ $.$.",
"$.$.$.$.$.Z N x n J $.$.$.H C M c b J $.$.$.$.$.$.$.$.$.$.$.$.! U M i f | $.$.$.$.$.$.X.Y i x  .$.$.",
"$.$.$.$.} k s R ~ $.$.$.$.] h s R ` $.$.$.$.$.$.$.$.$.$.$.$.$.$.^ R f h R ! $.$.$.$.$.( D s x } $.$.",
"$.$.$.$.} f d R ( $.$.$.$.| f a W ( $.$.$.$.$.$.$.$.$.$.$.$.$.$.$.$.Z M x b $.$.$.$.$.$.G n N z C $.",
"$.$.$.J R k h U $.$.$.$.G R k h U $.$.$.$.$.$.$.$.$.$.$.$.$.$.$.$.$.X.D a x { $.$.$.$.$.$.{ M a M o.",
"$.$.~ n k M I $.$.$.$.~ n l M S $.$.$.$.$.$.$.$.$.$.$.$.$.$.$.$.$.$.X.Y u z { $.$.$.$.$.$.o.M i M #.",
"$.$. .k i Y X.$.$.$.$.{ x i Y X.$.$.$.$.$.$.$.$.$.$.$.$.$.$.$.$.$.$.X.Y i x  .$.$.$.$.$.$.o.M u M O.",
"$.$. .k i T X.$.$.$.$. .x i Y X.$.$.$.$.$.$.$.$.$.$.$.$.$.$.$.$.$.$.X.Y u z +.$.$.$.$.$.$.o.M i M o.",
"$.$.O.x i T o.$.$.$./  .k i P X.$.$.$.$.$.$.$.$.$.$.$.$.$.$.$.$.$.$.X.Y u k +.( $.$.$.$.F n M x C $.",
"$.$.{ z a Y #.{ O.o.@. .x a D [ $.$.$.$.$.$.$.$.$.$.$.$.$.$.$.$.$.$.[ P a z +.@.@.{ o.{ Y f z _ $.$.",
"$.$.$.Z N x N M T #.@.^ C N N n F $.$.$.$.$.$.$.$.$.$.$.$.$.$.$.$.G b M z C ! X.+.E M M c c C $.$.$.",
"$.$.$.$._ x u i z ] $.$.J | h s R / $.$.$.$.$.$.$.$.$.$.$.$.$.$./ R f h } ! $.$.] x i i x U $.$.$.$.",
"$.$.$.$.$.C M V C $.$.$.$.} f s R ( $.$.$.$.$.$.$.$.$.$.$.$.$.$.( R s f | $.$.$.$.C B M C $.$.$.$.$.",
"$.$.$.$.$.^ o.o.^ $.$.$.$.' z f Y ~ $.$.$.$.$.$.$.$.$.$.$.$.$.$.~ T f z ' $.$.$.$.$.o.o.^ $.$.$.$.$.",
"$.$.$.$.$.$.$.$.$.$.$.$.$.$.A B k v ) ../ $.$.$.$.$.$.$.$.$.$.~ z k V A $.$.$.$.$.$.$.$.$.$.$.$.$.$.",
"$.$.$.$.$.$.$.$.$.$.$.$.$.$.$.) h x Y E R F $.$.$.$.$.$.$.$.G D x z I $.$.$.$.$.$.$.$.$.$.$.$.$.$.$.",
"$.$.$.$.$.$.$.$.$.$.$.$.$.$.$.$.) V g a f b / $.$.$.$.$.$.[ v h B A $.$.$.$.$.$.$.$.$.$.$.$.$.$.$.$.",
"$.$.$.$.$.$.$.$.$.$.$.$.$.$.$.$.$.A z l x E o.$.$.$.$.$.$.O.P z A $.$.$.$.$.$.$.$.$.$.$.$.$.$.$.$.$.",
"$.$.$.$.$.$.$.$.$.$.$.$.$.$.$.$.$.$.' } } #.X.$.$.$.$.$.$.@.+.' $.$.$.$.$.$.$.$.$.$.$.$.$.$.$.$.$.$.",
"$.$.$.$.$.$.$.$.$.$.$.$.$.$.$.$.$.$.$.$.^ ^ $.$.$.$.$.$.$.$.$.$.$.$.$.$.$.$.$.$.$.$.$.$.$.$.$.$.$.$.",
"$.$.$.$.$.$.$.$.$.$.$.$.$.$.$.$.$.$.$.$.$.$.$.$.$.$.$.$.$.$.$.$.$.$.$.$.$.$.$.$.$.$.$.$.$.$.$.$.$.$.",
"$.$.$.$.$.$.$.$.$.$.$.$.$.$.$.$.$.$.$.$.$.$.$.$.$.$.$.$.$.$.$.$.$.$.$.$.$.$.$.$.$.$.$.$.$.$.$.$.$.$.",
"$.$.$.$.$.$.$.$.$.$.$.$.$.$.$.$.$.$.$.$.$.$.$.$.$.$.$.$.$.$.$.$.$.$.$.$.$.$.$.$.$.$.$.$.$.$.$.$.$.$."
};
