/* XPM */
static char *_19ca35154bd428388a53c471bc4045fgJumAU19wA7XmxnR[] = {
/* columns rows colors chars-per-pixel */
"50 50 159 2 ",
"   c None",
".  c #DF0F67",
"X  c #DF0F68",
"o  c #E00F67",
"O  c #E00F68",
"+  c #E1146B",
"@  c #E11A6E",
"#  c #E31D71",
"$  c #E42475",
"%  c #E52B7A",
"&  c #E7327E",
"*  c #E73681",
"=  c #E93B85",
"-  c #EB448A",
";  c #EB4B8F",
":  c #EC4E91",
">  c #EE5495",
",  c #EF5B9A",
"<  c #F15D9C",
"1  c #F1619E",
"2  c #F265A1",
"3  c #F36BA5",
"4  c #F46FA8",
"5  c #F474AB",
"6  c #F57AAE",
"7  c #F67DB1",
"8  c #F785B6",
"9  c #F887B7",
"0  c #F788B7",
"q  c #F888B7",
"w  c #F787B8",
"e  c #F887B8",
"r  c #F78AB9",
"t  c #F889B9",
"y  c #F793BE",
"u  c #F892BD",
"i  c #F796C0",
"p  c #F896C0",
"a  c #F79CC3",
"s  c #F89CC3",
"d  c #F7A2C6",
"f  c #F8A3C7",
"g  c #F7A5C9",
"h  c #F8A5C9",
"j  c #F7ABCB",
"k  c #F8ABCC",
"l  c #F5B2CF",
"z  c #F8B1CF",
"x  c #EFBFD3",
"c  c #F6B5D1",
"v  c #F8B4D2",
"b  c #F6BBD5",
"n  c #F8BAD4",
"m  c #F7BFD8",
"M  c #F8BFD8",
"N  c #DBDEDA",
"B  c #EFC4D5",
"V  c #EACBD7",
"C  c #EFC4D9",
"Z  c #EFCBDA",
"A  c #F4C2D7",
"S  c #F7C4DA",
"D  c #F8C3DA",
"F  c #F5CBDD",
"G  c #F8CBDE",
"H  c #E4D3D9",
"J  c #EBD5DD",
"K  c #E4DBDD",
"L  c #E8DADE",
"P  c #F2D3DF",
"I  c #CCE9D9",
"U  c #D7E1D9",
"Y  c #DBE1DC",
"T  c #D3EBDC",
"R  c #D9EADF",
"E  c #E0E0DE",
"W  c #F7CFE1",
"Q  c #F8CEE0",
"!  c #EDD4E3",
"~  c #EDDCE4",
"^  c #ECDCE8",
"/  c #F6D4E2",
"(  c #F8D3E3",
")  c #F3DBE5",
"_  c #F8D9E6",
"`  c #F6DEE8",
"'  c #F7DFEA",
"]  c #F6DDE8",
"[  c #F6DEE8",
"{  c #F8DEE9",
"}  c #DFE6E0",
"|  c #DAEBE1",
" . c #DDECE2",
".. c #DEEBE2",
"X. c #D7F2E3",
"o. c #D7F3E4",
"O. c #D4F3E4",
"+. c #D9F5E5",
"@. c #DAF4E6",
"#. c #DDF5E7",
"$. c #DBF5E6",
"%. c #DDF5E8",
"&. c #DDF4E8",
"*. c #DDF5EA",
"=. c #DEF6F1",
"-. c #E5E5E3",
";. c #E6E6E4",
":. c #E3E5E2",
">. c #EAE3E5",
",. c #E9E6E6",
"<. c #EEE4E7",
"1. c #EAE2E4",
"2. c #E0EAE3",
"3. c #E3ECE6",
"4. c #E6EDE7",
"5. c #E2EBE5",
"6. c #ECE7E9",
"7. c #EBE4EA",
"8. c #E5EFE8",
"9. c #ECEBE9",
"0. c #ECEBEA",
"q. c #EBEDEA",
"w. c #EDEEEC",
"e. c #F1E1E7",
"r. c #F5E3EB",
"t. c #F6E2EA",
"y. c #F2E4E8",
"u. c #F2E5EB",
"i. c #F6E5ED",
"p. c #F5E3EB",
"a. c #F8E4ED",
"s. c #F3E9ED",
"d. c #F5E8ED",
"f. c #F1EEEE",
"g. c #F2EAED",
"h. c #E1F0E7",
"j. c #E1F0E7",
"k. c #E1F3E9",
"l. c #E3F3EA",
"z. c #E0F4E9",
"x. c #E3F4EA",
"c. c #E2F5EA",
"v. c #E2F4EB",
"b. c #E3F4EB",
"n. c #E7F4ED",
"m. c #E4F4EB",
"M. c #E9F2ED",
"N. c #E9F3EE",
"B. c #EBF3EE",
"V. c #ECF1ED",
"C. c #ECF1EE",
"Z. c #E7EFF3",
"A. c #EBEDF2",
"S. c #F4EDF0",
"D. c #E3F6F3",
"F. c #EBF4F3",
"G. c #E9F8F6",
"H. c #ECF9F9",
"J. c #F2F3F2",
/* pixels */
"                                                                                                    ",
"                                          #.&.&.&.&.&.&.#.+.                                        ",
"                                        0.i.` ` ` ` ` ` t.s. .                                      ",
"                              c.c.c.k.,.( b k g g g g g v S ~ 8.c.c.c.o.                            ",
"                            2.t._ / / G c g p p p i y r y k m ( / ) ` 6.                            ",
"                      k.N.q.) D k a a p i d z c v v k y r u p i s f c G <.N.m.                      ",
"                    R e._ G c g y r i s a k b v k j d y r r r w 0 r a k D ( ` ;.                    ",
"                  h.e.S k i y u r p k b b n n f r r w 8 8 8 8 8 8 8 8 r u d b ( 0.                  ",
"                | ) S j i r p f h j b m m c f y 8 6 3 > ; ; ; ; ; : 1 5 8 r a v / -.                ",
"              &.u.S j u r u k b n c n n v g r r 8 2 - $ + + + + + # = 1 6 r w a n ) C.              ",
"              c.` k y r p k v b j a s s s y r r 6 : $ + . . . . . + = < 6 8 r r a S f.              ",
"              4.( a r y g n n k p w 8 7 5 5 5 7 6 - # + o + + @ $ % ; 2 7 8 r r r c u.              ",
"            3.) b p p j c n j p r 7 3 > = & = 1 6 , = # + + $ = > 2 5 6 8 8 0 8 r j G 1.X.          ",
"          +.d.S h u s n m n a w 0 5 > & @ O @ ; 5 3 , = & & - < 4 5 4 3 3 5 8 9 r i v _ N.          ",
"          +.t.k y r s b m b a r 9 3 * @ + . + = 1 5 6 5 3 3 5 6 3 < = % % - 5 e r r p G C.          ",
"          +.` h w w a b m b a w 9 3 % o o . + % - 3 9 r 8 6 3 , : = $ + X % 3 e 9 q y S C.          ",
"          +.t.j w r a v m c a w 9 3 % + + . + + % 1 8 9 6 2 - $ # @ + + + & 3 e r r y S C.          ",
"          +.i.n p r u f h f y w 9 5 - $ + . + $ = 3 9 8 6 < = + . . . + $ - 5 9 r u h ( C.          ",
"           .t.G z i r r r r w r q 6 1 - $ @ # = < 5 8 8 6 1 - $ @ @ @ $ - 1 7 r r f M _ 0.          ",
"        T V D _ ( z p w w w e 0 0 8 5 3 > > > 2 5 8 8 9 8 5 2 > > > > , 3 6 8 u h D _ G A K         ",
"        u.v d G _ m f r 8 0 q w w 8 8 8 8 8 8 8 8 9 9 w 8 8 8 8 8 8 8 8 8 8 w i z G _ v d ( k.      ",
"        u.z u f k s y w 8 r r e w r r r w e w r e e e w r r r r r r r r r r w r i g k p i ( n.      ",
"        ;.b d i y r r w 8 9 w r r r r r e e e e e e r r r r r e e e e 9 8 9 9 r r r p s j L X.      ",
"          E ( m g u r w w r e r r r r r e e r r r e r r r r r r r r e r r w r w r p v G ~           ",
"            3.) S z h i u r 9 8 9 9 9 9 8 9 9 8 8 r r r 8 8 8 8 9 9 8 r y s h s u k G 1.X.          ",
"              3.d.i.( n s r w r w w w w r w w r r 0 r r r r r r r w w y k D _ S a v e.              ",
"                &.J._ z f d k c c z f i r y i u r 8 8 8 r p p r s v c b G ~  .K m b F N             ",
"                  q.G d j D ) s.d.{ D k i g v h u r r y s v k i v { d.S.S.h.    <.D f F n.          ",
"                Y C m D Q ) } O.N.t.v k m G _ Q D D D D G _ S k z D t.J.+.      C.S i S C.          ",
"              #./ g c i.J.n.    c.] g k t.J.F.C.w.w.w.w.C.C.) S j a Q N.        C.S i S C.          ",
"              c./ a v d.&.      c._ d k i.c.                R ) c i G N.        C.S i S C.          ",
"              c./ d v s.        :.( k b ;.                    3.B j S 1.        h.Z j D ~           ",
"              c.) d v s.      :.x c G K                         Y / b c K         Y / b l L         ",
"              L G z B 2.      t.k h ` #.                          s.c a / c.        s.b a ( n.      ",
"            1.l v ( Y         t.k h ` &.                          s.c d ) c.        s.n s ( n.      ",
"          +.` g j t.+.        t.k h ` &.                          f.G m t.c.        s.n a ( n.      ",
"          #.` g j t.+.        t.k h ` &.                          F.A.A.J.c.        s.n a ( n.      ",
"          #.` g j t.+.        t.k h ` &.                          G.H.H.H.*.        f.n s ( n.      ",
"          +.` g j t.+.        r.k h ` &.                          D.F.Z.G.*.        u.n g P &.      ",
"          #.` g j t.+.        t.k h ` &.                        *.Z.! C 7.D.O.  X.H m D F Y         ",
"            1.l c r.+.        t.k h ` #.                      =.G.Z.C l ^ D.*.D.J.G k F 3.          ",
"              L ` J.+.        r.k g ` #.                      G.H.F.7.^ Z.*.    F.i./ N             ",
"                m.c.          r.k h ` &.                      F.S.7.Z.D.=.      +.m.&.              ",
"                              t.k h ] #.                      C.G c ! *.                            ",
"                              } B c G K                     U P M c H                               ",
"                                :.( k b ,.                &.J j A ~ I                               ",
"                                  Y B Q S.O.              N.{ A H T                                 ",
"                                    5.f.B.                c.J.0.T                                   ",
"                                                                                                    ",
"                                                                                                    "
};
