/* XPM */
static char *result[] = {
/* columns rows colors chars-per-pixel */
"50 50 97 2 ",
"   c #DF0F67",
".  c #DF0F68",
"X  c #E00F67",
"o  c #E00F68",
"O  c #E1146A",
"+  c #E21A6E",
"@  c #E21E71",
"#  c #E42374",
"$  c #E62C7B",
"%  c #E7337E",
"&  c #E73480",
"*  c #E93C85",
"=  c #EB4389",
"-  c #EB488D",
";  c #ED4F91",
":  c #EE5495",
">  c #EF5798",
",  c #EF5B9A",
"<  c #F05F9D",
"1  c #F0619E",
"2  c #F165A1",
"3  c #F26BA5",
"4  c #F475AB",
"5  c #F579AE",
"6  c #F67EB1",
"7  c #F785B6",
"8  c #F887B7",
"9  c #F788B7",
"0  c #F888B7",
"q  c #F887B8",
"w  c #F78AB9",
"e  c #F889B9",
"r  c #F793BE",
"t  c #F893BE",
"y  c #F796C0",
"u  c #F897C0",
"i  c #F79CC3",
"p  c #F89AC2",
"a  c #F7A1C6",
"s  c #F8A2C7",
"d  c #F7A6C9",
"f  c #F8A5C9",
"g  c #F7ACCC",
"h  c #F8AACC",
"j  c #F7B0CF",
"k  c #F8B0CF",
"l  c #F7B4D1",
"z  c #F8B4D1",
"x  c #F7BCD5",
"c  c #F8BBD5",
"v  c #F7BFD8",
"b  c #EEC3D4",
"n  c #ECC9D7",
"m  c #E8CFD8",
"M  c #F7C4DA",
"N  c #F8C4DA",
"B  c #F7CBDE",
"V  c #F8CADE",
"C  c #E5D6DA",
"Z  c #E9D0D9",
"A  c #E1D8D9",
"S  c #F3D1DF",
"D  c #D7ECDF",
"F  c #D8EBDF",
"G  c #F7CFE0",
"H  c #F8CDE0",
"J  c #EDDFE4",
"K  c #F6D3E2",
"L  c #F8D3E3",
"P  c #F5DBE6",
"I  c #F8D8E7",
"U  c #F6DEE8",
"Y  c #F8DEE8",
"T  c #DBEBE2",
"R  c #D7F5E4",
"E  c #DBF3E5",
"W  c #DEF5E9",
"Q  c #E6E5E3",
"!  c #ECE3E5",
"~  c #E4EAE5",
"^  c #E8E8E6",
"/  c #EFE6E9",
"(  c #E7EDE9",
")  c #EDEDEC",
"_  c #F1E0E7",
"`  c #F4E2EA",
"'  c #F8E7EF",
"]  c #F1EAEC",
"[  c #E0F1E7",
"{  c #E3F3EA",
"}  c #EDF1EE",
"|  c #F0F0EF",
" . c #F7ECF1",
".. c #F8ECF1",
"X. c #EEF5F1",
"o. c #F3F6F4",
"O. c None",
/* pixels */
"O.O.O.O.O.O.O.O.O.O.O.O.O.O.O.O.O.O.O.O.O.O.O.O.O.O.O.O.O.O.O.O.O.O.O.O.O.O.O.O.O.O.O.O.O.O.O.O.O.O.",
"O.O.O.O.O.O.O.O.O.O.O.O.O.O.O.O.O.O.O.O.O.O.O.O.O.O.O.O.O.O.O.O.O.O.O.O.O.O.O.O.O.O.O.O.O.O.O.O.O.O.",
"O.O.O.O.O.O.O.O.O.O.O.O.O.O.O.O.O.O.O.O.O.O.O.O.O.O.O.O.O.O.O.O.O.O.O.O.O.O.O.O.O.O.O.O.O.O.O.O.O.O.",
"O.O.O.O.O.O.O.O.O.O.O.O.O.O.O.O.O.O.O.O.O.O.O.O.O.O.O.O.O.O.O.O.O.O.O.O.O.O.O.O.O.O.O.O.O.O.O.O.O.O.",
"O.O.O.O.O.O.O.O.O.O.O.O.O.O.O.O.O.O.O.O.O.O.O.O.O.O.O.O.O.O.O.O.O.O.O.O.O.O.O.O.O.O.O.O.O.O.O.O.O.O.",
"O.O.O.O.O.O.O.O.O.O.O.O.O.O.O.O.O.O.O.O.O.{ { [ { { { { { O.O.O.O.O.O.O.O.O.O.O.O.O.O.O.O.O.O.O.O.O.",
"O.O.O.O.O.O.O.O.O.O.O.O.O.O.O.O.O.O.O.O.~ ` K G K G K S U ^ O.O.O.O.O.O.O.O.O.O.O.O.O.O.O.O.O.O.O.O.",
"O.O.O.O.O.O.O.O.O.O.O.O.O.O.O.O.} ) ] / K l a p p p i r j B ` ) ) ) R O.O.O.O.O.O.O.O.O.O.O.O.O.O.O.",
"O.O.O.O.O.O.O.O.O.O.O.O.O.R R ^ K v z z f a d d d h i r t f k z x B ! T R O.O.O.O.O.O.O.O.O.O.O.O.O.",
"O.O.O.O.O.O.O.O.O.O.O.O.T ' U M g p w u u s z x k j s w 9 e w w r s N P ` ( O.O.O.O.O.O.O.O.O.O.O.O.",
"O.O.O.O.O.O.O.O.O.O.O.( K v f u u w p k l l c g r r w 9 7 7 7 7 7 r r i c S ^ O.O.O.O.O.O.O.O.O.O.O.",
"O.O.O.O.O.O.O.O.O.O.T P v i w y s s g v v x d u 7 5 1 > ; : ; : : 3 5 7 p k L Q O.O.O.O.O.O.O.O.O.O.",
"O.O.O.O.O.O.O.O.O.[ U x i w r d c z l x l g r w 6 1 * @ O O O + # = 3 7 e y z P { O.O.O.O.O.O.O.O.O.",
"O.O.O.O.O.O.O.O.O.{ K i r t g l z f p p p r e e 4 * @ o X   . . + = 3 7 e w y M ) O.O.O.O.O.O.O.O.O.",
"O.O.O.O.O.O.O.O.O.^ v r r s x z d t 7 4 3 1 1 4 4 = # O O O # $ * , 4 7 e 7 w l _ O.O.O.O.O.O.O.O.O.",
"O.O.O.O.O.O.O.O.) B h t d c x f w q 4 > & # # : 4 1 * @ O # - 2 4 5 5 6 7 7 w a M ` R O.O.O.O.O.O.O.",
"O.O.O.O.O.O.O.O.` l t t g x x s w 7 2 & + X O * 2 4 2 : : < 3 4 2 : = - 3 7 q r g P [ O.O.O.O.O.O.O.",
"O.O.O.O.O.O.O.O.` f e t g M c s w e , @ o X O $ ; 4 7 7 6 4 3 < = # . @ : 7 q q p K { O.O.O.O.O.O.O.",
"O.O.O.O.O.O.O.O.U f w w g x c s e 7 , @ O X X + & 3 e 7 4 : & # @ O . @ , 7 w q p K W O.O.O.O.O.O.O.",
"O.O.O.O.O.O.O.O.` z y w p h f p e 7 2 % + X X @ * 3 e 7 2 = @ o     + % 1 7 w t d U W O.O.O.O.O.O.O.",
"O.O.O.O.O.O.O.F ` V g t w w w e 0 7 4 > % # # * < 5 e 7 4 ; $ @ # @ % : 4 e w s N ` ~ O.O.O.O.O.O.O.",
"O.O.O.O.O.O.R n x L L g r e w e e 0 7 4 3 < 1 3 4 7 q 7 5 4 2 < , 1 3 4 7 t d V I c b T O.O.O.O.O.O.",
"O.O.O.O.O.O.) x i c N g t e 7 q e 7 0 7 7 7 e 7 0 7 q 7 q q 7 7 7 7 q q 7 w h N V i g / O.O.O.O.O.O.",
"O.O.O.O.O.O.( M r p t t w e 0 e q q e w 7 e e 7 e e q q q q q q e q w w e e w y p r z / O.O.O.O.O.O.",
"O.O.O.O.O.O.O.C M g t w 0 e e q 7 0 e e e e q e e q e q e e e q e 7 7 e q 7 w u f c Z O.O.O.O.O.O.O.",
"O.O.O.O.O.O.O.O.^ S l a t 9 9 0 e q 7 e 9 7 7 7 7 e e 7 7 7 e 7 7 9 w t p p w f B ^ O.O.O.O.O.O.O.O.",
"O.O.O.O.O.O.O.O.O.( ' L d w w w e e w w e q q q e e q e e e e 0 w w p z B M i z / O.O.O.O.O.O.O.O.O.",
"O.O.O.O.O.O.O.O.O.O.{ ] j r k z c z g i t w p t q 7 7 e t p w i z l N L  .U s c ) O.O.O.O.O.O.O.O.O.",
"O.O.O.O.O.O.O.O.O.O.O.] k f U | ] / P M i p l h t t t p k z u c ' ] } | o.U a c ) O.O.O.O.O.O.O.O.O.",
"O.O.O.O.O.O.O.O.O.O.O.] k g ` W O.O.D P g a L P L K B L Y V i x } O.O.O.{ U a c ) O.O.O.O.O.O.O.O.O.",
"O.O.O.O.O.O.O.O.O.O.O./ k h ` O.O.O.O.] z d ' X.{ { { { } P s c ) O.O.O.O.U a x } O.O.O.O.O.O.O.O.O.",
"O.O.O.O.O.O.O.O.O.O.O.` k h ` O.O.O.O./ j d ` O.O.O.O.O.W U a c } O.O.O.T I a x ) O.O.O.O.O.O.O.O.O.",
"O.O.O.O.O.O.O.O.O.O.A x g x ] O.O.O.O.] z d ` O.O.O.O.O.R I s c ) O.O.O.Z l g B } O.O.O.O.O.O.O.O.O.",
"O.O.O.O.O.O.O.O.O.[ B i j K ) O.O.O.O.] z d ` O.O.O.O.O.E P a c ) O.O.) x i x P E O.O.O.O.O.O.O.O.O.",
"O.O.O.O.O.O.O.O.O.{ V p M ( O.O.O.O.O.) z d ` O.O.O.O.O.W P a c } O.O.) z s L T O.O.O.O.O.O.O.O.O.O.",
"O.O.O.O.O.O.O.O.O.{ V i B { O.O.O.O.O.) g d ` O.O.O.O.O.R P a c ) O.O.] z s ` O.O.O.O.O.O.O.O.O.O.O.",
"O.O.O.O.O.O.O.O.O.{ V i S { O.O.O.O.O.` z h ` O.O.O.O.O.T K d N ) O.O.] l d ` O.O.O.O.O.O.O.O.O.O.O.",
"O.O.O.O.O.O.O.O.O.{ V i V { O.O.O.O.C l g N ] O.O.O.O.T n k j V } O.O.) l d U O.O.O.O.O.O.O.O.O.O.O.",
"O.O.O.O.O.O.O.O.O.{ H h I { O.O.O.{ B p k K ( O.O.O.O./ l i M ! E O.O.] N j ` O.O.O.O.O.O.O.O.O.O.O.",
"O.O.O.O.O.O.O.O.O.} ` N _ W O.O.O.[ B i B ( O.O.O.O.O.] z f P T O.O.O.| L B ] O.O.O.O.O.O.O.O.O.O.O.",
"O.O.O.O.O.O.O.O.O.{ ..` T O.O.O.O.{ H i H { O.O.O.O.O.] l d ` O.O.O.O.X.' ! T O.O.O.O.O.O.O.O.O.O.O.",
"O.O.O.O.O.O.O.O.O.W } { O.O.O.O.O.{ V i H { O.O.O.O.O./ l d U O.O.O.O.{ } E O.O.O.O.O.O.O.O.O.O.O.O.",
"O.O.O.O.O.O.O.O.O.O.O.O.O.O.O.O.O.{ G i H { O.O.O.O.O.] z d U O.O.O.O.O.O.O.O.O.O.O.O.O.O.O.O.O.O.O.",
"O.O.O.O.O.O.O.O.O.O.O.O.O.O.O.O.O.{ B s H { O.O.O.O.O.] z d ` O.O.O.O.O.O.O.O.O.O.O.O.O.O.O.O.O.O.O.",
"O.O.O.O.O.O.O.O.O.O.O.O.O.O.O.O.O.{ H i H { O.O.O.O.O.) z d U O.O.O.O.O.O.O.O.O.O.O.O.O.O.O.O.O.O.O.",
"O.O.O.O.O.O.O.O.O.O.O.O.O.O.O.O.O.{ V i H [ O.O.O.O.O.] l d ` O.O.O.O.O.O.O.O.O.O.O.O.O.O.O.O.O.O.O.",
"O.O.O.O.O.O.O.O.O.O.O.O.O.O.O.O.O.{ G h L { O.O.O.O.O.] c j ` O.O.O.O.O.O.O.O.O.O.O.O.O.O.O.O.O.O.O.",
"O.O.O.O.O.O.O.O.O.O.O.O.O.O.O.O.O.{ U N ` [ O.O.O.O.O.o.L B ] O.O.O.O.O.O.O.O.O.O.O.O.O.O.O.O.O.O.O.",
"O.O.O.O.O.O.O.O.O.O.O.O.O.O.O.O.O.{ .._ ~ O.O.O.O.O.O.o.' ! T O.O.O.O.O.O.O.O.O.O.O.O.O.O.O.O.O.O.O.",
"O.O.O.O.O.O.O.O.O.O.O.O.O.O.O.O.O.W o.{ O.O.O.O.O.O.O.{ o.E O.O.O.O.O.O.O.O.O.O.O.O.O.O.O.O.O.O.O.O."
};
