/* XPM */
static char *result[] = {
/* columns rows colors chars-per-pixel */
"50 50 98 2 ",
"   c #DF0F67",
".  c #DF1068",
"X  c #E00F67",
"o  c #E00F68",
"O  c #E01067",
"+  c #E0136A",
"@  c #E11A6F",
"#  c #E31E72",
"$  c #E42374",
"%  c #E62B7A",
"&  c #E6317D",
"*  c #E73782",
"=  c #E83480",
"-  c #E93C85",
";  c #EB448B",
":  c #EC4B8F",
">  c #ED4E91",
",  c #EE5495",
"<  c #EF5B9A",
"1  c #F15F9D",
"2  c #F1619E",
"3  c #F267A2",
"4  c #F36CA5",
"5  c #F473AA",
"6  c #F57BAF",
"7  c #F67DB1",
"8  c #F785B6",
"9  c #F887B7",
"0  c #F788B7",
"q  c #F787B8",
"w  c #F887B8",
"e  c #F78AB9",
"r  c #F889B9",
"t  c #F792BE",
"y  c #F892BE",
"u  c #F796C0",
"i  c #F896C0",
"p  c #F79BC3",
"a  c #F89CC3",
"s  c #F7A1C6",
"d  c #F8A2C7",
"f  c #F7A6C9",
"g  c #F8A6C9",
"h  c #F7ABCB",
"j  c #F8ABCC",
"k  c #F7B1CE",
"l  c #F8B0CF",
"z  c #F7B4D1",
"x  c #F8B4D1",
"c  c #F7BCD5",
"v  c #F8BBD5",
"b  c #F7BFD8",
"n  c #F8BED8",
"m  c #EFC4D5",
"M  c #E9CDD8",
"N  c #F7C4DA",
"B  c #F8C2D9",
"V  c #F6CCDE",
"C  c #F8CADE",
"Z  c #EAD2DA",
"A  c #E3DADB",
"S  c #F2D1DE",
"D  c #DAE3DB",
"F  c #D5EDDE",
"G  c #D8ECDF",
"H  c #E2E1DF",
"J  c #F8CEE0",
"K  c #EEDBE3",
"L  c #F6D5E3",
"P  c #F8D2E2",
"I  c #F5DAE6",
"U  c #F8DAE6",
"Y  c #F6DEE8",
"T  c #DBECE1",
"R  c #D7F3E3",
"E  c #DBF4E6",
"W  c #DEF5E9",
"Q  c #E4E5E3",
"!  c #EAE2E5",
"~  c #E3EAE5",
"^  c #EDE6E8",
"/  c #E7EDE8",
"(  c #EDEDEB",
")  c #F0E1E7",
"_  c #F4E4EA",
"`  c #F8E5ED",
"'  c #F1E9EC",
"]  c #E4F4EB",
"[  c #EAF1EC",
"{  c #F5EEF0",
"}  c #F8ECF2",
"|  c #EFF7F2",
" . c #EFF8F3",
".. c #F4F1F2",
"X. c #F6F9F7",
"o. c #F7F8F8",
"O. c #F8F8F8",
"+. c None",
/* pixels */
"+.+.+.+.+.+.+.+.+.+.+.+.+.+.+.+.+.+.+.+.+.+.+.+.+.+.+.+.+.+.+.+.+.+.+.+.+.+.+.+.+.+.+.+.+.+.+.+.+.+.",
"+.+.+.+.+.+.+.+.+.+.+.+.+.+.+.+.+.+.+.+.+.+.+.+.+.+.+.+.+.+.+.+.+.+.+.+.+.+.+.+.+.+.+.+.+.+.+.+.+.+.",
"+.+.+.+.+.+.+.+.+.+.+.+.+.+.+.+.+.+.+.+.W ] ] ] ] W W W R +.+.+.+.+.+.+.+.+.+.+.+.+.+.+.+.+.+.+.+.+.",
"+.+.+.+.+.+.+.+.+.+.+.+.+.+.+.+.+.+.+.T _ L S S P P P I ^ +.+.+.+.+.+.+.+.+.+.+.+.+.+.+.+.+.+.+.+.+.",
"+.+.+.+.+.+.+.+.+.+.+.+.+.+.+.+.T ( ( I c f p p p p p j N ! ' / +.+.+.+.+.+.+.+.+.+.+.+.+.+.+.+.+.+.",
"+.+.+.+.+.+.+.+.+.+.+.+.+.+.R T M c z h s f g g g s e y s z z c A R +.+.+.+.+.+.+.+.+.+.+.+.+.+.+.+.",
"+.+.+.+.+.+.+.+.+.+.+.+.+./ _ I h t t u p k v z j g e e w e e t B Y ' F +.+.+.+.+.+.+.+.+.+.+.+.+.+.",
"+.+.+.+.+.+.+.+.+.+.+.+.~ L n p t t h z z c j p y y 8 8 8 8 8 0 t h N I W +.+.+.+.+.+.+.+.+.+.+.+.+.",
"+.+.+.+.+.+.+.+.+.+.+.Q L v p e t g c c c j p 8 6 4 , , , , , , 5 e f N ) G +.+.+.+.+.+.+.+.+.+.+.+.",
"+.+.+.+.+.+.+.+.+.+.] I c p e i g z v v z t e 8 3 ; $ + + @ . $ < 0 e d N _ E +.+.+.+.+.+.+.+.+.+.+.",
"+.+.+.+.+.+.+.+.+.+.] C a e i g s p p t t e 8 8 : $ O         @ < 0 r e f ) ] +.+.+.+.+.+.+.+.+.+.+.",
"+.+.+.+.+.+.+.+.+.+.! v e i g z a 8 6 4 2 2 4 6 > $ + X   $ % ; 3 9 r r t S H +.+.+.+.+.+.+.+.+.+.+.",
"+.+.+.+.+.+.+.+.+.' V f t h c v s 7 1 - $ # ; 5 3 ; $ @ $ ; 2 5 6 8 0 8 t z L [ +.+.+.+.+.+.+.+.+.+.",
"+.+.+.+.+.+.+.+.E _ h t i h b v s 5 - # o o % 3 5 4 1 , < 4 5 3 , , 6 r e t B ' +.+.+.+.+.+.+.+.+.+.",
"+.+.+.+.+.+.+.+.E Y a e y j B c p 4 % X X o % , 5 8 8 8 8 0 5 < % & 5 r e e z ( +.+.+.+.+.+.+.+.+.+.",
"+.+.+.+.+.+.+.+.R U a e e x b c a 3 % X X X % , 5 8 8 8 0 8 5 , $ & 5 r r e k ' +.+.+.+.+.+.+.+.+.+.",
"+.+.+.+.+.+.+.+.+.I s r y l B v s 4 %   X X # * 3 w 8 6 4 , : & # & 5 8 r r k ( +.+.+.+.+.+.+.+.+.+.",
"+.+.+.+.+.+.+.+.+.Y f e t g x x a 4 % + + O + $ 1 8 8 5 , % + + @ * 5 r r y v ' +.+.+.+.+.+.+.+.+.+.",
"+.+.+.+.+.+.+.+.R ` c a e t i t e 5 > % + O $ ; 4 r 8 5 > $ + + % , 6 r e g C ' +.+.+.+.+.+.+.+.+.+.",
"+.+.+.+.+.+.+.+.A P P v a e r r e 8 4 , - * : 3 6 r 8 6 2 : - - < 4 8 y g N P S D +.+.+.+.+.+.+.+.+.",
"+.+.+.+.+.+.+.( c h P P x t e 9 w 8 8 7 6 6 6 8 8 8 9 r 8 7 6 6 7 8 r a x U N h S W +.+.+.+.+.+.+.+.",
"+.+.+.+.+.+.+.( v t h h a e w r w e w w w w r r r r r w 9 w w 9 r r r y f h f t S / +.+.+.+.+.+.+.+.",
"+.+.+.+.+.+.+.T m s u t e 8 8 r e e w w w w w r r 9 w w 9 9 w 9 r 8 8 r e t a h Z +.+.+.+.+.+.+.+.+.",
"+.+.+.+.+.+.+.+.D I c s y w w r 8 8 e 8 w w r r 9 r w w 9 r r w r e e e t h N ! +.+.+.+.+.+.+.+.+.+.",
"+.+.+.+.+.+.+.+.+.T ) V x p e 8 r r 9 r r 8 8 r 9 9 r 8 r r r r u g x g p B ! +.+.+.+.+.+.+.+.+.+.+.",
"+.+.+.+.+.+.+.+.+.+.] [ ` g e p t t y e e y e e 8 9 e e e r e a z P ` c s L W +.+.+.+.+.+.+.+.+.+.+.",
"+.+.+.+.+.+.+.+.+.+.+.R _ g g V U S x s y g s e w r e a g t g P ` } ..c s L R +.+.+.+.+.+.+.+.+.+.+.",
"+.+.+.+.+.+.+.+.+.+.+.+._ h k ' | ~ L l t v C x x l l B C a x ' ] ] ..B s L W +.+.+.+.+.+.+.+.+.+.+.",
"+.+.+.+.+.+.+.+.+.+.+.+.' h h ' +.+.( B a L ..' ' ' ' ..` g l ' +.+.[ v s Y W +.+.+.+.+.+.+.+.+.+.+.",
"+.+.+.+.+.+.+.+.+.+.+.+.) h k ' +.+.[ B s L [ +.+.+.+.W _ g x ' +.+.[ B s L W +.+.+.+.+.+.+.+.+.+.+.",
"+.+.+.+.+.+.+.+.+.+.+.+.' g k ' +.+.[ B s L W +.+.+.+.+._ g l ' +.+.Z v h Y W +.+.+.+.+.+.+.+.+.+.+.",
"+.+.+.+.+.+.+.+.+.+.+.+.' g k ' +.+.( B a L W +.+.+.+.+._ g l }  .K h f B _ +.+.+.+.+.+.+.+.+.+.+.+.",
"+.+.+.+.+.+.+.+.+.+.+.+.' h h ' +.+.[ N a U ] +.+.+.+.+.^ j l } o.U a l I T +.+.+.+.+.+.+.+.+.+.+.+.",
"+.+.+.+.+.+.+.+.+.+.+.+.' g k ' +.+.( N a L W +.+.+.+.+.Y j l } o.U p b ( +.+.+.+.+.+.+.+.+.+.+.+.+.",
"+.+.+.+.+.+.+.+.+.+.+.+.' h k ' +.+.] B d L W +.+.+.+.+.Y j l } o.U d b [ +.+.+.+.+.+.+.+.+.+.+.+.+.",
"+.+.+.+.+.+.+.+.+.+.+.+.) h h ' +.+.[ B a U W +.+.+.+.+._ j l } o.Y p b ( +.+.+.+.+.+.+.+.+.+.+.+.+.",
"+.+.+.+.+.+.+.+.+.+.+.+.' h l ' +.+.^ B d L ] +.+.+.+.+.I h x } o.U d b / +.+.+.+.+.+.+.+.+.+.+.+.+.",
"+.+.+.+.+.+.+.+.+.+.+.+.) h j ' ] Q c h v _ W +.+.+.+.Z z h J } o.U a b [ +.+.+.+.+.+.+.+.+.+.+.+.+.",
"+.+.+.+.+.+.+.+.+.+.+.+.' x v } o.Y d j V Q +.+.+.+.[ B p c K ]  .Y h C | +.+.+.+.+.+.+.+.+.+.+.+.+.",
"+.+.+.+.+.+.+.+.+.+.+.+.' V V ..o.U a v ^ +.+.+.+.+.( B a P T +.W ` C L ] +.+.+.+.+.+.+.+.+.+.+.+.+.",
"+.+.+.+.+.+.+.+.+.+.+.+..._ ! R ] U d v ( +.+.+.+.+./ B s L W +.R .._ Q +.+.+.+.+.+.+.+.+.+.+.+.+.+.",
"+.+.+.+.+.+.+.+.+.+.+.+.] | +.+.W I f v [ +.+.+.+.+.[ B s L W +.+.[ [ +.+.+.+.+.+.+.+.+.+.+.+.+.+.+.",
"+.+.+.+.+.+.+.+.+.+.+.+.+.+.+.+.+.I f v ( +.+.+.+.+./ B s L W +.+.+.+.+.+.+.+.+.+.+.+.+.+.+.+.+.+.+.",
"+.+.+.+.+.+.+.+.+.+.+.+.+.+.+.+.+.I s v [ +.+.+.+.+.[ B f L W +.+.+.+.+.+.+.+.+.+.+.+.+.+.+.+.+.+.+.",
"+.+.+.+.+.+.+.+.+.+.+.+.+.+.+.+.+.I d v ( +.+.+.+.+.[ c s L W +.+.+.+.+.+.+.+.+.+.+.+.+.+.+.+.+.+.+.",
"+.+.+.+.+.+.+.+.+.+.+.+.+.+.+.+.+.U d v [ +.+.+.+.+.[ B s L W +.+.+.+.+.+.+.+.+.+.+.+.+.+.+.+.+.+.+.",
"+.+.+.+.+.+.+.+.+.+.+.+.+.+.+.+.W _ j N [ +.+.+.+.+.[ C j Y W +.+.+.+.+.+.+.+.+.+.+.+.+.+.+.+.+.+.+.",
"+.+.+.+.+.+.+.+.+.+.+.+.+.+.+.+.R ' C L [ +.+.+.+.+.[ U C _ R +.+.+.+.+.+.+.+.+.+.+.+.+.+.+.+.+.+.+.",
"+.+.+.+.+.+.+.+.+.+.+.+.+.+.+.+.R .._ Q +.+.+.+.+.+.[ ' ' G +.+.+.+.+.+.+.+.+.+.+.+.+.+.+.+.+.+.+.+.",
"+.+.+.+.+.+.+.+.+.+.+.+.+.+.+.+.+.| [ +.+.+.+.+.+.+.] | ] +.+.+.+.+.+.+.+.+.+.+.+.+.+.+.+.+.+.+.+.+."
};
