/* XPM */
static char *result[] = {
/* columns rows colors chars-per-pixel */
"50 50 117 2 ",
"   c #DF0F67",
".  c #DF0F68",
"X  c #DF1068",
"o  c #E00F68",
"O  c #E01067",
"+  c #E0136A",
"@  c #E21A6F",
"#  c #E21D71",
"$  c #E42374",
"%  c #E42877",
"&  c #E52B7A",
"*  c #E7317E",
"=  c #E73681",
"-  c #E73882",
";  c #E93C85",
":  c #E94087",
">  c #EA448A",
",  c #EB4A8E",
"<  c #EE4E91",
"1  c #ED5395",
"2  c #EE5897",
"3  c #EE5798",
"4  c #EF5C9B",
"5  c #F05D9C",
"6  c #F0609E",
"7  c #F266A1",
"8  c #F36CA5",
"9  c #F474AB",
"0  c #F579AE",
"q  c #F67EB1",
"w  c #F784B5",
"e  c #F887B7",
"r  c #F788B7",
"t  c #F888B7",
"y  c #F787B8",
"u  c #F887B8",
"i  c #F78AB9",
"p  c #F889B9",
"a  c #F792BE",
"s  c #F892BE",
"d  c #F797C0",
"f  c #F896C0",
"g  c #F79BC3",
"h  c #F89BC3",
"j  c #F7A2C7",
"k  c #F8A1C6",
"l  c #F7A5C9",
"z  c #F8A5C9",
"x  c #F6ACCC",
"c  c #F8ADCD",
"v  c #F6B1CF",
"b  c #F8B0CF",
"n  c #F6B4D1",
"m  c #F8B3D1",
"M  c #F6BBD4",
"N  c #F8B9D4",
"B  c #F7BFD8",
"V  c #F9BFD8",
"C  c #DDDDDA",
"Z  c #EEC4D5",
"A  c #EBCAD7",
"S  c #EFC4DA",
"D  c #EBCDD9",
"F  c #F7C0D7",
"G  c #F6C4DA",
"H  c #F8C3DA",
"J  c #F5CADD",
"K  c #F8CCDF",
"L  c #E5D5DC",
"P  c #EAD5DC",
"I  c #E4DCDE",
"U  c #EAD9DF",
"Y  c #F4D1DF",
"T  c #D5E5DB",
"R  c #DCE2DD",
"E  c #D6EBDE",
"W  c #E2E2DF",
"Q  c #EDCFE1",
"!  c #F5CFE0",
"~  c #F8CEE0",
"^  c #ECDDE2",
"/  c #EBDFE9",
"(  c #F5D4E2",
")  c #F8D4E4",
"_  c #F5DBE6",
"`  c #F9DCE7",
"'  c #F6DDE8",
"]  c #F8DDE9",
"[  c #D5EEE0",
"{  c #DCECE2",
"}  c #CDF4E4",
"|  c #D4F4E4",
" . c #DBF4E6",
".. c #D5F5E9",
"X. c #DEF5E8",
"o. c #DFF6F1",
"O. c #ECE4E6",
"+. c #E2EAE4",
"@. c #E9E8E7",
"#. c #EBE3EC",
"$. c #E6EFE9",
"%. c #ECECEB",
"&. c #F1E2E7",
"*. c #F4E5EB",
"=. c #F8E5EC",
"-. c #F2EAEC",
";. c #E0F0E6",
":. c #E4F4EB",
">. c #EBF3EE",
",. c #E9EEF2",
"<. c #F5EDF1",
"1. c #E3F6F2",
"2. c #EDF4F3",
"3. c #EAF8F7",
"4. c #EAF8F8",
"5. c #F1F3F3",
"6. c None",
/* pixels */
"6.6.6.6.6.6.6.6.6.6.6.6.6.6.6.6.6.6.6.6.6.6.6.6.6.6.6.6.6.6.6.6.6.6.6.6.6.6.6.6.6.6.6.6.6.6.6.6.6.6.",
"6.6.6.6.6.6.6.6.6.6.6.6.6.6.6.6.6.6.6.6.6.6.6.6.6.6.6.6.6.6.6.6.6.6.6.6.6.6.6.6.6.6.6.6.6.6.6.6.6.6.",
"6.6.6.6.6.6.6.6.6.6.6.6.6.6.6.6.6.6.6.[ -.-.*.*.-.-.=.-.-.X.6.6.6.6.6.6.6.6.6.6.6.6.6.6.6.6.6.6.6.6.",
"6.6.6.6.6.6.6.6.6.6.6.6.6.6.6. . .X.X.O.! M c b c c c n J ^ +.X. . .6.6.6.6.6.6.6.6.6.6.6.6.6.6.6.6.",
"6.6.6.6.6.6.6.6.6.6.6.6.6.6.+.=.' _ ) G b j g s f f i a z B ) _ ' =.@.6.6.6.6.6.6.6.6.6.6.6.6.6.6.6.",
"6.6.6.6.6.6.6.6.6.6.6.X.:.$.( H l j j h h l m m m m g p a f j g l N Y @.>.:.6.6.6.6.6.6.6.6.6.6.6.6.",
"6.6.6.6.6.6.6.6.6.6.E &.) K m j a a h g l m M b x z f u p p p u r g b G ( ' { 6.6.6.6.6.6.6.6.6.6.6.",
"6.6.6.6.6.6.6.6.6.X.&.G x s a a i g m N N M b s p p t q q q q q w r i a l M _ $.6.6.6.6.6.6.6.6.6.6.",
"6.6.6.6.6.6.6.6.{ O.G z f i h z z m B F N x h i q 8 3 , , , , , , 5 9 w i j M _ { 6.6.6.6.6.6.6.6.6.",
"6.6.6.6.6.6.6.| -.G l a i f b N n n n n b g p y 9 < & @ X X X . @ ; 6 q p i z M ' :.6.6.6.6.6.6.6.6.",
"6.6.6.6.6.6.6. .=.m s i h c N N k h f f f i p w 5 & @ O . . . . @ - 6 0 p p i z ) :.6.6.6.6.6.6.6.6.",
"6.6.6.6.6.6.6.+.( j i h c M n l i w q 9 7 7 8 q 5 & @ O . X $ & - 1 8 w t u p s G @.6.6.6.6.6.6.6.6.",
"6.6.6.6.6.6.:._ N s s v M N j i i 9 7 ; $ % > 9 8 , & + + $ > 5 8 9 q w w y w a m ( @.6.6.6.6.6.6.6.",
"6.6.6.6.6.6.-.G j a g N M N h p u 8 ; $ O o & 4 9 8 1 > > 1 7 9 9 7 1 1 7 q i i h N =. .6.6.6.6.6.6.",
"6.6.6.6.6.6.-.m i p g N H N h u w 4 $ O o o $ , 8 q w 0 0 0 9 8 1 & @ # > 9 p i i l =. .6.6.6.6.6.6.",
"6.6.6.6.6.6.-.b i p g N F N h t w 4 # o o o @ & 1 q u w 9 5 , - & #   X - 0 i w r j _  .6.6.6.6.6.6.",
"6.6.6.6.6.6.-.N a i h b m b f t w 5 & + O . + $ < q u q 7 > $ O O O @ # ; q p p i x ' X.6.6.6.6.6.6.",
"6.6.6.6.6.6.-.K l a i f h f i p u 8 , % + O # ; 5 q u q 7 ; # O O O # = 4 q i i l H =. .6.6.6.6.6.6.",
"6.6.6.6.6.R ( ( J z s i y i i p y q 7 < - - > 5 9 w p w 8 4 ; = = = ; 4 9 w i j B ( ( I 6.6.6.6.6.6.",
"6.6.6.6.;.A x K ` H z i r w w p w w q 0 9 9 9 q w u i y w q 9 9 9 9 9 q q u g N ( ( x M @.6.6.6.6.6.",
"6.6.6.6.>.G s c M b h i w t u u u p u u u p p u u u y u y u u p u u p p p p f x N n s v %.6.6.6.6.6.",
"6.6.6.6.;.G h s s i i p t p p t u u u t w t y p u u u t y i y t t t w i t p p i a f s M @.6.6.6.6.6.",
"6.6.6.6.6.R J v l a p p p p p p p t t t p u u u i w p i u u u u u i y u t t r i g m G L 6.6.6.6.6.6.",
"6.6.6.6.6.6.+._ H l h s i p w p t y u y r t r t u p p w r r r r t y p a f g s a m ( @.6.6.6.6.6.6.6.",
"6.6.6.6.6.6.6.+.-.=.K n h i i p p p w t p p p p t t i y i u u y p p a x F Y v g G @.6.6.6.6.6.6.6.6.",
"6.6.6.6.6.6.6.6.:.5.` n z g l c b l g a i f s i y y p i f f p g c c m K _ +.D N G P 6.6.6.6.6.6.6.6.",
"6.6.6.6.6.6.6.6.6.%.( l x F _ -.=.) N k h c b s i i i f c x f m ` =.<.-.{ 6.6._ n v ^ 6.6.6.6.6.6.6.",
"6.6.6.6.6.6.6.6.T D M F K _ R  .5._ c b F ) ) G H V H G ) J c c G =.2. .6.6.6.-.m z ' X.6.6.6.6.6.6.",
"6.6.6.6.6.6.6.| _ x v =.5.:.6.6.:.K h H <.5.>.-.%.5.%.>.2.O.J l g ! :.6.6.6.6.*.c k ' X.6.6.6.6.6.6.",
"6.6.6.6.6.6.6. .' l x *.:.6.6.6.:.K h G >.6.6.6.6.6.6.6.6.E O.N g K >.6.6.6.6.-.m j '  .6.6.6.6.6.6.",
"6.6.6.6.6.6.6. .' l c -.6.6.6.6.^ G b D X.6.6.6.6.6.6.6.6.6.{ D c G ^ 6.6.6.6.+.M n ( W 6.6.6.6.6.6.",
"6.6.6.6.6.6.6. .' z v *.6.6.6.W v m _ T 6.6.6.6.6.6.6.6.6.6.6.T ^ N v ^ 6.6.6.6.R J v M +.6.6.6.6.6.",
"6.6.6.6.6.6.6.L J N Z { 6.6.:._ j m -.6.6.6.6.6.6.6.6.6.6.6.6.6.-.n j _ X.6.6.6.X.' j b -.6.6.6.6.6.",
"6.6.6.6.6.6.@.N x ) { 6.6.6. ._ j b -.6.6.6.6.6.6.6.6.6.6.6.6.6.-.N x _ X.6.6.6.X.' l v *.6.6.6.6.6.",
"6.6.6.6.6.6.-.b j _ X.6.6.6.:._ j m -.6.6.6.6.6.6.6.6.6.6.6.6.6.,.( ! <.X.6.6.6. ._ j v -.6.6.6.6.6.",
"6.6.6.6.6.6.-.b j _ X.6.6.6. ._ j m -.6.6.6.6.6.6.6.6.6.6.6.6.6.2.2.4.2.X.6.6.6.X._ j b -.6.6.6.6.6.",
"6.6.6.6.6.6.-.b j ' X.6.6.6.:._ j m -.6.6.6.6.6.6.6.6.6.6.6.6.6.4.4.4.4...6.6.6. ._ j b *.6.6.6.6.6.",
"6.6.6.6.6.6.-.m j '  .6.6.6. ._ j m -.6.6.6.6.6.6.6.6.6.6.6.6.} 1.#./ ,...6.6.6.I K m Z { 6.6.6.6.6.",
"6.6.6.6.6.6.%.m l ' :.6.6.6.:.' j m -.6.6.6.6.6.6.6.6.6.6.6...o.,.S n #.4.o.X.$.F v ( R 6.6.6.6.6.6.",
"6.6.6.6.6.6.E A J =. .6.6.6. ._ j m -.6.6.6.6.6.6.6.6.6.6.6.:.4.2.Q S #.o.} o.<.Y Z R 6.6.6.6.6.6.6.",
"6.6.6.6.6.6.6.{ %.5. .6.6.6.X._ j v -.6.6.6.6.6.6.6.6.6.6.6.>.2.,.,.2.1...6.6.2.-.{ 6.6.6.6.6.6.6.6.",
"6.6.6.6.6.6.6.6.6.6.6.6.6.6.X.` j v -.6.6.6.6.6.6.6.6.6.6.6.>.' S / o.6.6.6.6.6.6.6.6.6.6.6.6.6.6.6.",
"6.6.6.6.6.6.6.6.6.6.6.6.6.6.6.^ v N _ T 6.6.6.6.6.6.6.6.6.6.O.F x L | 6.6.6.6.6.6.6.6.6.6.6.6.6.6.6.",
"6.6.6.6.6.6.6.6.6.6.6.6.6.6.6.6.U G v P  .6.6.6.6.6.6.6.6.I M M P T 6.6.6.6.6.6.6.6.6.6.6.6.6.6.6.6.",
"6.6.6.6.6.6.6.6.6.6.6.6.6.6.6.6.| P n ) >.6.6.6.6.6.6.6.:.' N A { 6.6.6.6.6.6.6.6.6.6.6.6.6.6.6.6.6.",
"6.6.6.6.6.6.6.6.6.6.6.6.6.6.6.6.6.6.@.-.>.6.6.6.6.6.6.6.X.5.*.T 6.6.6.6.6.6.6.6.6.6.6.6.6.6.6.6.6.6.",
"6.6.6.6.6.6.6.6.6.6.6.6.6.6.6.6.6.6.6.| 6.6.6.6.6.6.6.6.6.| 6.6.6.6.6.6.6.6.6.6.6.6.6.6.6.6.6.6.6.6.",
"6.6.6.6.6.6.6.6.6.6.6.6.6.6.6.6.6.6.6.6.6.6.6.6.6.6.6.6.6.6.6.6.6.6.6.6.6.6.6.6.6.6.6.6.6.6.6.6.6.6.",
"6.6.6.6.6.6.6.6.6.6.6.6.6.6.6.6.6.6.6.6.6.6.6.6.6.6.6.6.6.6.6.6.6.6.6.6.6.6.6.6.6.6.6.6.6.6.6.6.6.6.",
"6.6.6.6.6.6.6.6.6.6.6.6.6.6.6.6.6.6.6.6.6.6.6.6.6.6.6.6.6.6.6.6.6.6.6.6.6.6.6.6.6.6.6.6.6.6.6.6.6.6."
};
