/* XPM */
static char *left1706965499[] = {
/* columns rows colors chars-per-pixel */
"50 50 222 2 ",
"   c None",
".  c #040404",
"X  c #0A0A0A",
"o  c #131412",
"O  c #19140D",
"+  c #28170B",
"@  c #371C0B",
"#  c #301C10",
"$  c #372315",
"%  c #2D2D1A",
"&  c #1F2123",
"*  c #292928",
"=  c #363739",
"-  c #49260D",
";  c #4B2A15",
":  c #4C2D1B",
">  c #452815",
",  c #55331B",
"<  c #5B351B",
"1  c #5E3413",
"2  c #53300D",
"3  c #683819",
"4  c #733B18",
"5  c #7A3E19",
"6  c #773A15",
"7  c #563925",
"8  c #653D21",
"9  c #6C1C11",
"0  c #6C540D",
"q  c #767210",
"w  c #50463E",
"e  c #6D4123",
"r  c #774626",
"t  c #667231",
"y  c #6C7A34",
"u  c #6A712F",
"i  c #1D3A41",
"p  c #2A4F58",
"a  c #33636E",
"s  c #585856",
"d  c #524F4A",
"f  c #6F5B56",
"g  c #595E64",
"h  c #686868",
"j  c #76756F",
"k  c #75716B",
"l  c #776658",
"z  c #B92E1C",
"x  c #9E342A",
"c  c #D12D1E",
"v  c #EF301E",
"b  c #814D2A",
"n  c #935630",
"m  c #A05C31",
"M  c #9E6034",
"N  c #AE6939",
"B  c #A76536",
"V  c #B46D3A",
"C  c #B16A37",
"Z  c #BC723D",
"A  c #84650E",
"S  c #9B5F57",
"D  c #9C7558",
"F  c #916547",
"G  c #957672",
"H  c #A17D65",
"J  c #B54D44",
"K  c #78863B",
"L  c #7F8C47",
"P  c #8A8506",
"I  c #9B9504",
"U  c #898518",
"Y  c #989411",
"T  c #A29A03",
"R  c #A19417",
"E  c #ACA608",
"W  c #B4AD07",
"Q  c #BBB304",
"!  c #BAB60E",
"~  c #A9A619",
"^  c #B1AE14",
"/  c #BBB813",
"(  c #86843B",
")  c #8F8C2C",
"_  c #A59F2D",
"`  c #ADA42B",
"'  c #B3AB28",
"]  c #BCB625",
"[  c #B9B438",
"{  c #CC961B",
"}  c #C4BB08",
"|  c #C4BC1B",
" . c #F2BF1E",
".. c #C2B921",
"X. c #C4BD30",
"o. c #F1B922",
"O. c #CAC408",
"+. c #D5CB02",
"@. c #D3CC09",
"#. c #DDD40B",
"$. c #D7D207",
"%. c #CDC41A",
"&. c #C7C311",
"*. c #D6CC17",
"=. c #DBD213",
"-. c #DDD41C",
";. c #E1D603",
":. c #E4DA03",
">. c #E9DE01",
",. c #E5DC0D",
"<. c #EADA0A",
"1. c #F4C819",
"2. c #E3DC14",
"3. c #E4DB18",
"4. c #F6D411",
"5. c #F8DE10",
"6. c #F9DE0C",
"7. c #EDE302",
"8. c #ECE30C",
"9. c #F1E705",
"0. c #F5EA04",
"q. c #FAEE02",
"w. c #F0E70A",
"e. c #F2E909",
"r. c #FAE309",
"t. c #FEF200",
"y. c #EBE212",
"u. c #EAE21F",
"i. c #F0E818",
"p. c #CEC729",
"a. c #D1CC2C",
"s. c #D1CA24",
"d. c #D8D224",
"f. c #CAC537",
"g. c #CDD23A",
"h. c #D2D336",
"j. c #E2C020",
"k. c #E9E125",
"l. c #8A9A48",
"z. c #8D9557",
"x. c #969253",
"c. c #A49F42",
"v. c #97A84C",
"b. c #9FB251",
"n. c #A2B556",
"m. c #AEAE4E",
"M. c #8D8C75",
"N. c #A28D70",
"B. c #AEAF6C",
"V. c #C2B952",
"C. c #C1BC61",
"Z. c #C3BF79",
"A. c #EFBD4D",
"S. c #B4C95E",
"D. c #AEC25A",
"F. c #B7CC63",
"G. c #BDD364",
"H. c #C7C846",
"J. c #CDD446",
"K. c #C3CC5A",
"L. c #C6D25D",
"P. c #CBD958",
"I. c #E2DB48",
"U. c #C6C165",
"Y. c #CBDC63",
"T. c #C5DA67",
"R. c #D5D071",
"E. c #E6C363",
"W. c #CEE165",
"Q. c #CDE36B",
"!. c #D0E66B",
"~. c #D3EB6F",
"^. c #D1E566",
"/. c #D4EC70",
"(. c #7D9FA7",
"). c #6DA3AC",
"_. c #7DA4AC",
"`. c #77AAB4",
"'. c #828382",
"]. c #99918E",
"[. c #AF9582",
"{. c #AA8E8D",
"}. c #B1AF86",
"|. c #B4B098",
" X c #9F9FA2",
".X c #A091A5",
"XX c #90ADB3",
"oX c #A9ABAC",
"OX c #B3B5B8",
"+X c #C0BEA5",
"@X c #CABDBC",
"#X c #EFBB93",
"$X c #AFC097",
"%X c #B8D7B2",
"&X c #CCC98F",
"*X c #E9DB8B",
"=X c #CECCA5",
"-X c #CBCABC",
";X c #D3D2B7",
":X c #D4D2A5",
">X c #EAE7BE",
",X c #E6E3AA",
"<X c #97BAC1",
"1X c #B6C7CB",
"2X c #B8E0D5",
"3X c #B8E8F2",
"4X c #9FC8D0",
"5X c #C3C4C4",
"6X c #C0CBCE",
"7X c #D8D7C4",
"8X c #D8D9D9",
"9X c #CAD1D3",
"0X c #F6D9DD",
"qX c #E2E2D4",
"wX c #F3ECD6",
"eX c #F1EFD6",
"rX c #ECEBEB",
"tX c #E7E8E6",
"yX c #F3F3F4",
"uX c #FEFEFE",
"iX c #F7F7F8",
"pX c #EFF0F1",
/* pixels */
"                                                                                                    ",
"                          a.f.      X.p.          a.f.      a.3.8.y.3.h.p.d.3.s.                    ",
"                -.u.d.-.e.t.e.y.2.y.w.0.8.3.3.2.w.t.e.8.y.8.q.t.t.t.t.0.w.q.t.,.[                   ",
"                2.t.t.w.8.0.t.t.t.t.t.t.t.t.t.t.t.t.t.t.t.t.t.t.t.t.t.=.| w.w.J.T.                  ",
"                d.t.*.' ' | q.t.t.t.t.t.t.t.t.t.t.t.t.t.t.t.t.t.t.t.q.%.&.0.h.~.~.L.                ",
"                2.,.` ` ` ] t.t.t.t.t.t.t.t.t.t.t.t.t.t.t.t.t.t.t.t.t.q.q.0.S./././.Y.              ",
"                w.2.` ` ' 2.q.t.t.t.t.t.t.t.t.t.0.:.q.t.t.t.t.t.t.t.t.t.t.e.J.G.v.S.Q.              ",
"                8.0.*.*.,.q.q.9.+.t.t.q.t.0.0.t.;.T t.t.7.7.t.t.t.t.t.t.t.0.J.( t K T.K.            ",
"                -.,.%.q.q.>.q.#.I 7.0.Q 9.+.E =.] ( s.,.T +.t.t.t.t.t.t.t.<.S.( t u D.W.m.          ",
"                p.,.=.t.q.T ] R.}.&X[ E q.#.x.;XtXpXqX|.` 0.t.t.t.t.t.t.t.a.Q.b.t y T./.W.          ",
"                a.0.t.t.9.C.8XuXuXuXrX&X%.Z.yXuXuXuXuXuX7Xf.q.t.t.t.t.t.2.P./.Q.b.n.~./.^.          ",
"                d.t.t.t.H.rXuXuXyXtXuXpX|.tXiXtXtXuXuXuXuX=X#.t.t.t.q.t.a.~././././.~.~.L.          ",
"                2.t.t.8.:XuXuXtXXX).1X8X5XuX6X).`.9XuXuXuXrXH.q.t.t.t.t.a.~./.~./.b.G.W.            ",
"                8.t.t.-.qXuXuX1Xp p `.5X8XiX(.i a XXiXuXuXiXU.0.t.t.t.q.h.~./.~./.n.S.P.            ",
"                2.t.t.-.qXuXuX1Xp p `.5X9XiX_.i a <XiXuXuXiXK.r.t.t.t.q.J.~.~./././.~.L.            ",
"                s.q.t.<.=X8XyXpXXXXX9XtX5XuX8X_.`.8XuXuXuXrXf.q.t.t.t.2.W.~./.~.~./.Y.              ",
"                  e.t.#.q R v.-XyXiXuXyX|.rXuXyXyXuXuX0X#XE.j.q.t.t.0.J.~.~./././.!.                ",
"                  0.t.Q Y t.9./ B.-XtX=XX.F.pXuXuXuX0XA.4.r.1.1.t.t.2.Y./.~.~././.^.                ",
"                d.q.t.O.P 0.t.t.7.&.[ } 0.,.U.7XrXpX*X0.4.5.r.1.0.t.,.W././.~.~./.!.                ",
"                -.t.t.0.T P O.>.0.0.7.7.q.t.0.=.f.X.5.7.I Q t.4.q.t.8.W.~.Q./.~./.^.                ",
"                p.t.t.t.q.} I I I I } :.q.t.t.t.t.q.q.+.P W 4.1.t.t.2.T.l.K S./.~.K.                ",
"                  8.t.t.t.t.t.+.E 7.t.t.t.t.t.t.t.0.} T :.q.4.r.t.0.g.G.y t K Q.!.                  ",
"                  2.t.t.t.t.>.q T @.:.<.7.9.>.$.Q T Q 9.t.t.q.t.t.y.P.G.K t K Q.Y.                  ",
"                  2.t.=.0.t.q.:.} _ }.B.U x.N.( Q >.t.t.t.t.t.q.t.2.W.~.v.t v./.!.                  ",
"                [ <.w...w.t.t.t.t.E.uXtX[ 7XuX&X9.t.t.t.t.t.t.t.t.8.P./.!.G.Q./.L.                  ",
"                  8.t.e.t.t.t.t.q.V.-X+X' &X;XB.0.t.q.t.t.t.q.8.w.0.g./.Q.n.T.Y.                    ",
"                z.*.t.8.%.=.q.t.0.7.=.@.<.=.*.#.0.q.t.t.t.t.*.` / w.H./.Q.L l.z.                    ",
"                  s.0.] ` ` y.t.4. . .o.o.o.1.1.4.q.t.t.t.0.' ` ] =.P./.F.L     M.                  ",
"        ~ ~ u       ,.` ` ] e.t.t.r.5.q.0.4.1.r.t.t.t.t.t.q.| ..2.h./.F.      y ] ..&.&.&.&.        ",
"    ^ @.O.&.)     a.e.*.%.e.t.t.t.t.t.t.t.t.t.t.t.t.t.t.t.t.w.t.q.J./.n.      M.$Xz.      @.^       ",
"    / &.          x.=.7.0.q.t.t.t.t.t.t.t.t.t.t.t.t.t.t.t.e.| e.e.J./.G.z.    oXoX        &.&.      ",
"    ! /             x.*X*X^.k.w.w.i.w.0.t.t.t.0.t.t.t.t.t.w.*.t.w.P././.Q.G.n.            ^ @.      ",
"    / /             '.iXuXiXeX,X}.;X>XC.{ { C.R.I.3.2.5.k.k.w.t.s.L.W.T.^.^.L.              $.      ",
"    ^ @.^           j 8XrXyXiXiXrXOXOXoXJ c G 9X8X+X7XeXeXeX,XB.B.%X%X2X%X$X            ~ &.,.      ",
"U O.e.t.9.W         w F D D H N.[.[.G |.S x ]. XoX8XpXyXiXiXuXOX4X3X3X3X3XXX          / 0.0.q.#.R   ",
"U $.q.>.E ^         3 , > ; 8 N m r r r z c 5 n F F D D H N.[.l k j k l l w           } O.+.t.t.@.  ",
"  ^ Q 7.E           8 r , ; , V b + O 9 v v 9 O + 1 V 3 , < e e 3 6 2 @ @ @             Y ,.$.Q E   ",
"      U             e Z Z Z V Z V N B n z z n r e b C : # + $ 3 6 r @ + @ +               E U q     ",
"                    e B N V Z Z Z Z Z Z m B Z Z Z Z Z V V N N e 6 6 6 r 6 1                         ",
"                      > 7 7 , 3 e r b n n m B N V V V Z Z Z Z e 6 4 4 3 3 ;                         ",
"                            < 3 2 @         $ + # $ 7 8 3 e r ; - ; :                               ",
"                            : ; 0 U * o *       . X   > 1 2 2 1 4 3                                 ",
"                                  U s = * d     X .   R } O.0 6 4 :                                 ",
"                                  s j d X f     * % W :.} A 3 4 <                                   ",
"                                  h h & o g   {..XM.P U     7 ,                                     ",
"                                    s . o M.5X-XG * X                                               ",
"                                  * * . . j oX                                                      ",
"                                  s & . . *                                                         ",
"                                  h = X o                                                           ",
"                                                                                                    "
};
