/* XPM */
static char *right1706965499[] = {
/* columns rows colors chars-per-pixel */
"50 50 221 2 ",
"   c None",
".  c #020202",
"X  c gray4",
"o  c #1E120B",
"O  c #181818",
"+  c #1B0D06",
"@  c #23140A",
"#  c #351D0E",
"$  c #2E231B",
"%  c #0D1E22",
"&  c #1B353E",
"*  c #2B2B2B",
"=  c #313332",
"-  c #4A2C15",
";  c #472A17",
":  c #562C14",
">  c #5A361A",
",  c #4B2B17",
"<  c #6D3919",
"1  c #653619",
"2  c #743C19",
"3  c #783D19",
"4  c #5C3A21",
"5  c #563721",
"6  c #473021",
"7  c #653E22",
"8  c #6A4D12",
"9  c #79750D",
"0  c #4F453D",
"q  c #6D4427",
"w  c #784927",
"e  c #7D5132",
"r  c #636F2F",
"t  c #667231",
"y  c #6B7734",
"u  c #6E752C",
"i  c #38646E",
"p  c #285059",
"a  c #585959",
"s  c #4A4A4A",
"d  c #686867",
"f  c #767475",
"g  c #75746F",
"h  c #96251A",
"j  c #AA2F1D",
"k  c #963A20",
"l  c #B23E20",
"z  c #CD2C1B",
"x  c #F4311D",
"c  c #87532C",
"v  c #865532",
"b  c #945B31",
"n  c #9B5F33",
"m  c #8F4A2A",
"M  c #9D6034",
"N  c #AD6939",
"B  c #A66435",
"V  c #B46D3A",
"C  c #BC723C",
"Z  c #C0743E",
"A  c #D04A1E",
"S  c #826758",
"D  c #79873C",
"F  c #938E02",
"G  c #9A9407",
"H  c #9D9814",
"J  c #8C880E",
"K  c #A49C04",
"L  c #A79D0A",
"P  c #A39C17",
"I  c #AAA509",
"U  c #B4AC07",
"Y  c #BBB509",
"T  c #A9A515",
"R  c #BBB716",
"E  c #B2AE11",
"W  c #94953E",
"Q  c #8B8B31",
"!  c #A39E31",
"~  c #ACA42C",
"^  c #A4A122",
"/  c #B5AC26",
"(  c #B4AB28",
")  c #BDB423",
"_  c #BAB62A",
"`  c #B8B33C",
"'  c #C4BB05",
"]  c #C4BF18",
"[  c #F1BC1F",
"{  c #C3BB26",
"}  c #CABD37",
"|  c #F0B822",
" . c #CCC305",
".. c #CFC90B",
"X. c #C9C60E",
"o. c #D3CA03",
"O. c #D3CC07",
"+. c #DBD409",
"@. c #C9C317",
"#. c #D3CB17",
"$. c #DBD313",
"%. c #DBD21C",
"&. c #DFD918",
"*. c #E1D602",
"=. c #E4DA03",
"-. c #E5DB0D",
";. c #E8D908",
":. c #F5DC0B",
">. c #F6DC0C",
",. c #F3C719",
"<. c #E4DC13",
"1. c #E1D918",
"2. c #F6D414",
"3. c #E9C713",
"4. c #ECE302",
"5. c #ECE30C",
"6. c #F1E604",
"7. c #F5EB03",
"8. c #FAED03",
"9. c #F1E609",
"0. c #F3E908",
"q. c #FAE509",
"w. c #FEF200",
"e. c #EAE211",
"r. c #E8E01B",
"t. c #CDC525",
"y. c #CDC52C",
"u. c #C7C129",
"i. c #D4CD24",
"p. c #D5CD2B",
"a. c #D9D225",
"s. c #CDD139",
"d. c #D3D438",
"f. c #CFC533",
"g. c #E8CD2C",
"h. c #F8E026",
"j. c #849442",
"k. c #929042",
"l. c #94A34B",
"z. c #A4B754",
"x. c #BAB855",
"c. c #B9B647",
"v. c #989E69",
"b. c #8E856E",
"n. c #9AA760",
"m. c #ABA86A",
"M. c #A7B66A",
"N. c #ACAB7F",
"B. c #C1BB4D",
"V. c #C0BC68",
"C. c #B2C65B",
"Z. c #BBC54C",
"A. c #B8CE61",
"S. c #B8CA65",
"D. c #BBD162",
"F. c #ADC065",
"G. c #C8C649",
"H. c #CED646",
"J. c #D8D943",
"K. c #C4C957",
"L. c #C7D45E",
"P. c #CCDC5C",
"I. c #CAD956",
"U. c #DDD65B",
"Y. c #CCDC64",
"T. c #C6DA66",
"R. c #CBC777",
"E. c #E4DE77",
"W. c #CDE56C",
"Q. c #CEE162",
"!. c #D3EA6E",
"~. c #D1E66A",
"^. c #D4ED71",
"/. c #407A86",
"(. c #588B96",
"). c #769398",
"_. c #6A9EA8",
"`. c #8C9090",
"'. c #B19896",
"]. c #8FA09E",
"[. c #A4A381",
"{. c #BAB88B",
"}. c #B5AF93",
"|. c #A29BA6",
" X c #8EB4BB",
".X c #97B7B8",
"XX c #93A8AB",
"oX c #BEBAB8",
"OX c #B9B1A6",
"+X c #C1BF8A",
"@X c #BED385",
"#X c #BAD5A0",
"$X c #C9C68A",
"%X c #D2CE90",
"&X c #EEC896",
"*X c #CBC9A4",
"=X c #D9D8B6",
"-X c #D4D1A8",
";X c #9FBDC3",
":X c #A3BBC2",
">X c #B8C5C8",
",X c #AEC2C5",
"<X c #BCEBF4",
"1X c #BDEBEE",
"2X c #C8C8C8",
"3X c #C8CFD1",
"4X c #DADCDC",
"5X c #D3D8CF",
"6X c #E7E6C9",
"7X c #E4E3D8",
"8X c #F1E4CE",
"9X c #D9DFE1",
"0X c #DCE2E3",
"qX c #ECEDED",
"wX c #E4E5E4",
"eX c #EEEFF2",
"rX c #F2F3F3",
"tX c #FEFEFE",
"yX c #FCF4F7",
"uX c #F5F4E7",
"iX c #F3CCC5",
/* pixels */
"                    t.<.1.a.a.<.8.w.e.a.  } f.i.i.      } y.y.f.    p.a.f.                          ",
"                    a.w.w.8.<.#.&.w.w.7.0.0.6.8.w.0.e.e.5.8.8.0.e.9.8.w.8.<.1.5.a.                  ",
"                  L.I.&.w.#.~ ~ ( 0.w.w.w.w.w.w.w.w.w.w.w.w.w.w.w.w.w.8.w.6.<.7.a.                  ",
"                T.W.!.H.-.) ~ ~ ) 7.w.w.w.w.w.w.w.w.w.w.w.w.w.w.w.w.w.w.w.t./ 5.a.                  ",
"              T.!.^.^.I.<.@./ ) 5.w.w.8.w.w.w.w.w.w.w.w.w.w.w.w.w.w.w.w.w.5.e.w.%.                  ",
"              Y.W.z.A.I.5.7.0.7.w.w.w.w.w.w.w.;. .w.w.w.w.w.w.w.8.8.w.w.w.w.w.w.<.                  ",
"              W.l.r D Z.5.#.$.w.w.w.w.w.' *.w. .G 7.4.o.8.4.w.w.' *.w.8.w.w.w.w.%.                  ",
"          x.Y.T.y t t C.%.e.0.w.w.w.w.w.o.H B.$X{.R.~ I w.U  .%.W ] =.' 7.w.w.8.y.                  ",
"          T.^.A.y t y D.H.5.w.w.w.w.w.8.t.*XrXtXtXtX7XM.9.t.{.7XqX7X{./ 8.w.w.e.                    ",
"          K.!.Y.D r Q W.!.a.8.w.w.w.w.$.*XtXtXtXtXyXtXqXm.=XtXtXtXtXtX=X%.w.w.0.                    ",
"            L.^.z.j.S.^.!.s.8.w.w.w.8.G.rXtXtXtX>X X>XtX3X4XqX:X,XeXtXtXR.7.w.w.a.                  ",
"            K.!.^.W.^.^.^.s.8.w.w.w.6.$XtXtXtX0X_.i (.0XqX2X:X/.i ,XtXtX=X<.w.w.&.                  ",
"              !.A.l.!.^.!.H.7.w.w.w.4.%XtXtXtX9X(.% i 4XqXoX Xp & .XtXtX6X1.w.w.%.                  ",
"              T.T.A.^.^.^.P.e.w.w.w.6.R.tXtXtXrX X(.XXrXwX2X5X_._.9XtXqX-X-.w.8.u.                  ",
"                W.^.^.!.^.!.d.7.w.8.q.} &XiXyXtXrX0XrXtXoX4XtXeXeX9XN.W b 4.w.5.                    ",
"                L.!.!.^.^.^.Q.<.w.8.,.2.>.,.&XtXtXtXyX6X` %XeX4X{._ =.7.F  .w.5.                    ",
"                Q.^.^.^.^.^.Q.<.w.8.,.q.2.>.h.8XyXwX*Xy.7...` _ +.w.w.7.F  .w.0.                    ",
"                T.!.^.D.z.D.Q.e.w.q.2.8.I U 8.p.G.p.-.w.w.4.4.8.8.4.o.F G 8.w.8.t.                  ",
"                  ~.!.j.r D T.e.8.8.,.;.K G 4.w.8.w.w.w.w.4.o.I F K G ' w.w.w.0.y.                  ",
"                  Y.C.y y y D.d.8.w.>.2.w. .K o.8.w.w.w.w.w.w.7.U ' w.w.w.w.w.<.                    ",
"                  Y.A.y t D W.P.5.w.w.w.w.w.=.U L ' o.*.*.+.o. .I 9 =.w.w.w.w.%.                    ",
"                  Y.!.l.D C.^.Q.<.w.w.w.w.w.w.8.=.P [.[.Q m.*Xm. .4.w.w.w.6.w.#.                    ",
"                    ~.!.W.^.!.I.6.w.8.w.w.w.w.w.w.p.wXuXc.=XtX%X7.w.w.8.t./ <.<.                    ",
"                    l.A.C.W.!.s.8.7.] 9.w.8.w.w.w.%.{.+X_ x.+XB.8.w.w.$.~ ~ $.$.                    ",
"          ^ ^           y T.^.H.8.0.$.8.w.w.w.w.q.:.;.;.:.3.;.:.>.w.w.-.) @.0.t.                    ",
"        ] O.X.X.R ) W     n.W.Y.&.w.8.5.9.w.w.w.8.2.| | | ,.[ [ 2.w.w.w.9.w.0.      H ] X.R         ",
"        ..        {.v.      M.^.d.8.#.~ ) 6.w.w.8.w.8.q.w.w.w.8.w.w.w.-.#.w.0.            X.        ",
"      ] X.        XX>X      F.^.H.5.( ~ / 9.w.w.w.8.8.w.w.w.w.w.w.w.w.5.<.w.5.            @.R       ",
"      X.'             v.M.F.W.^.H.5.R ) <.w.w.w.w.w.8.w.w.w.8.w.w.w.8.r.d.a._             R R       ",
"      O.R             K.~.!.~.^.I.4.8.7.0.8.w.8.8.5.-.1.-.-.5.1.y.d.E.6XuX7Xf             ..O.R     ",
"  T +.8.6.+.            S.@X#X@XS.c.i.J.E.U.#.{       l A q         tXtXtXrXf           O.7.w.8.I   ",
"  X.w.w.O.4.E           .X<X<X<X1X.X                  j h         '.OX}.'.b.0           Y U 6.+.T   ",
"  H Y 4.X.T             d `.`.].XX).    S     e v v e j z m b v n N c q q w 5             I ..J     ",
"    9 I E               ; : : : < 1 w c e w b M , , - z x h @ o q V - @ # > >                       ",
"                        + + + # 3 2 1 @ + + q B , , 1 j z k c b B C V N V V 4                       ",
"                        : 2 2 2 3 < w n B B N C C C C N m N Z Z Z C C C V V 4                       ",
"                        , < q 2 3 < w Z C C C V V V V N B b b v c 2 < 1 q 5                         ",
"                              ; - ; 1 c w w q 7 4 5 6 $ o $   ; : 1 1 >                             ",
"                              , < : 8 K L u           = s s   5 2 w 2 >                             ",
"                                1 1 8 P -.X.b.      X * g d     - > -                               ",
"                                          W |.'.    X O g         E                                 ",
"                                              oX2Xa . O a         X.                                ",
"                                                `.* . O *       E U                                 ",
"                                                  X . * g OXf   ' H                                 ",
"                                                    X s f '.].^ O.                                  ",
"                                                    . O     a b H                                   ",
"                                                    . *                                             ",
"                                                    X d                                             ",
"                                                    X O                                             ",
"                                                                                                    "
};
