/* XPM */
static char *face1706965499[] = {
/* columns rows colors chars-per-pixel */
"50 50 220 2 ",
"   c None",
".  c #130F13",
"X  c #250614",
"o  c #341816",
"O  c #330817",
"+  c #3D2A1B",
"@  c #161E28",
"#  c #331925",
"$  c #313235",
"%  c #401817",
"&  c #4A2C15",
"*  c #613E1B",
"=  c #482E22",
"-  c #563824",
";  c #623D28",
":  c #5A4A1D",
">  c #4B4714",
",  c #67581B",
"<  c #6E6D1C",
"1  c #785533",
"2  c #7B6B2C",
"3  c #6B7B2A",
"4  c #797726",
"5  c #796833",
"6  c #584A26",
"7  c #4B3642",
"8  c #3A454C",
"9  c #254A59",
"0  c #2D5B6C",
"q  c #2F6275",
"w  c #4A525B",
"e  c #5B626B",
"r  c #5C6670",
"t  c #B01916",
"y  c #9A281D",
"u  c #A8261E",
"i  c #AE332D",
"p  c #993926",
"a  c #D71C18",
"s  c #D9211C",
"d  c #E5251D",
"f  c #CD2A21",
"g  c #D82621",
"h  c #D8392C",
"j  c #CE3831",
"k  c #EC2A23",
"l  c #F32C22",
"z  c #EA352A",
"x  c #F83428",
"c  c #8C7B1D",
"v  c #8A5E34",
"b  c #9C5238",
"n  c #AE4D2B",
"m  c #8D6139",
"M  c #996639",
"N  c #92792E",
"B  c #A36C3A",
"V  c #B6773E",
"C  c #B7702B",
"Z  c #AE711F",
"A  c #C37029",
"S  c #D04028",
"D  c #956A4E",
"F  c #AC7647",
"G  c #B67B42",
"H  c #BB7C42",
"J  c #B67F4B",
"K  c #A47952",
"L  c #B37378",
"P  c #8F6765",
"I  c #C17F41",
"U  c #7C8455",
"Y  c #78867E",
"T  c #90901C",
"R  c #A2981D",
"E  c #AFB219",
"W  c #949B38",
"Q  c #909327",
"!  c #A69D21",
"~  c #BD8424",
"^  c #9BA425",
"/  c #97A131",
"(  c #A5AB24",
")  c #A9B22C",
"_  c #ACB624",
"`  c #B5BA27",
"'  c #B6BD38",
"]  c #AFAF30",
"[  c #9CA917",
"{  c #D1BF1F",
"}  c #C39D24",
"|  c #CCB42E",
" . c #BCC319",
".. c #BBC22D",
"X. c #B9C126",
"o. c #CBCD1D",
"O. c #C4C71A",
"+. c #CED219",
"@. c #D4D91B",
"#. c #DBDD1B",
"$. c #D5D917",
"%. c #CFCE16",
"&. c #E0DE19",
"*. c #DDE118",
"=. c #E2E315",
"-. c #E5E914",
";. c #ECED15",
":. c #E3E51B",
">. c #EBE51D",
",. c #E6E91A",
"<. c #EBED1B",
"1. c #F0EE19",
"2. c #EEF014",
"3. c #EFF11C",
"4. c #F1F217",
"5. c #F2F31A",
"6. c #C6CA27",
"7. c #CBD32A",
"8. c #CCD327",
"9. c #D5DA24",
"0. c #DADE24",
"q. c #D5DC2A",
"w. c #D7D828",
"e. c #C1CB39",
"r. c #CAD237",
"t. c #D2D63C",
"y. c #D6DA34",
"u. c #D6C12C",
"i. c #E7D724",
"p. c #DDE124",
"a. c #DDE12B",
"s. c #E3E523",
"d. c #E6E923",
"f. c #EAED22",
"g. c #E3E528",
"h. c #F1E821",
"j. c #EDF022",
"k. c #F2F220",
"l. c #ECED35",
"z. c #8B9345",
"x. c #B1884F",
"c. c #A9B050",
"v. c #909B6A",
"b. c #9CA96E",
"n. c #9EA976",
"m. c #B2B872",
"M. c #C58343",
"N. c #CC8643",
"B. c #CD8944",
"V. c #D9B24D",
"C. c #BCC644",
"Z. c #B9C55A",
"A. c #BDC37F",
"S. c #BBC46A",
"D. c #C4CC43",
"F. c #C6CE49",
"G. c #CDD343",
"H. c #CED157",
"J. c #D1D24E",
"K. c #DCE158",
"L. c #ECEE56",
"P. c #E1E444",
"I. c #C4CA79",
"U. c #CCCE68",
"Y. c #DEE268",
"T. c #ECEE6C",
"R. c #367188",
"E. c #777E85",
"W. c #4F94A8",
"Q. c #68A9BF",
"!. c #7F9396",
"~. c #91908F",
"^. c #B88286",
"/. c #B0B892",
"(. c #9CAAB4",
"). c #9AA3AB",
"_. c #A7B5BC",
"`. c #B8B6B4",
"'. c #B0ACAE",
"]. c #CA8A8D",
"[. c #B9C28E",
"{. c #BEC7A9",
"}. c #C9CD86",
"|. c #C8D194",
" X c #C3C9A8",
".X c #D0D5B0",
"XX c #84BACD",
"oX c #95B5CA",
"OX c #B8BAC5",
"+X c #A8B7C0",
"@X c #C2BCC2",
"#X c #94C6D5",
"$X c #A8CBD9",
"%X c #BBC9D5",
"&X c #BACCD2",
"*X c #BCD6E2",
"=X c #C4C7CC",
"-X c #D6DAC9",
";X c #C7CFD8",
":X c #C9D2D8",
">X c #D6DED9",
",X c #C9D1CE",
"<X c #E4E9DA",
"1X c #C9D8E0",
"2X c #D6DEE4",
"3X c #E1DCE2",
"4X c #DCE4EB",
"5X c #D9E4E9",
"6X c #DEE6F1",
"7X c #CAE0E7",
"8X c #E5EAEA",
"9X c #E4EBF3",
"0X c #EAEFF3",
"qX c #EBF1F6",
"wX c #EDF3FA",
"eX c #F1F5FA",
"rX c #F5F9FC",
"tX c #F2F6F7",
"yX c #ECF0EE",
"uX c #D9E2C9",
/* pixels */
"                                                    e...                                            ",
"                                                y.j.k.k.9.                                          ",
"                                                j.2.;.5.-.)                                         ",
"                    ..g.a.r.6.7.s.g.p.7.    7.p.<.#.+.5.*._   7.a.d.f.p...` 7.q.                    ",
"                    6.k.5.k.5.5.5.5.5.5.k.3.5.2.$. .%.;.%.+.,.3.5.5.5.5.5.3.5.2._                   ",
"                    ] j.5.j.g.j.5.5.5.5.5.5.3.2.@.O.+.O. .*.2.2.5.5.5.5.5.5.5.:.^                   ",
"                    W f.k.y.F.t.k.5.5.5.5.5.5.5.;.*.$.#.-.-.2.3.5.5.5.5.a.a.3.*.                    ",
"                      f.5.G.F.G.j.5.5.5.9.*.5.3.1.5.1.-.-.=.6.2.5.5.5.3.t.G.j.*.                    ",
"                    ) <.5.y.G.a.3.:.{ >.E ` #.( <.2.4.E o.6.T >.6.#.5.5.g.p.3.,.(                   ",
"                    ..5.5.k.f.3.4.:.W I. X X[.c.<.;.1.` m..X X}.z.p.5.4.5.5.5.3.`                   ",
"                      j.5.5.5.5.2.G.-XtXrXrXwXuXH.,.t.uXeXrXeXeX>XU.<.5.5.5.5.<./                   ",
"                      p.f.a.3.5.a..XrXrXrXtXeXwX-XD..XtXeXeXeXeXeX>XG.2.5.5.5.@.                    ",
"                      7.g.t.3.2.U.yXrXrX7X#X#X5X4X/.8XwX*X#X$X9XwX9X[.<.5.5.2. .                    ",
"                      6.3.3.5.;.}.rXrXqXXX0 R.#X2X&X8X5XQ.9 W.*XwX9X|.d.5.3.5.X.                    ",
"                      7.5.5.5.;.U.qXtXyXXXq R.oX1X(.4X5XQ.0 W.*XqX6X[.d.5.5.4.6.                    ",
"                      0.5.5.5.>.J.<XqXqX1XXXXX*X`.v./.>X$XXX$X6X6X1XS.2.4.5.3.p.                    ",
"                      p.5.5.<.h.h.Y.<XqX9X5X2XOXb.p.+./.5X4X8X4X>X|.y.1.4.4.4.&.                    ",
"                      7.5.1.<.1.&.0.Y.uX>X&X+X!./ *.%.z._.*X:X&X}.l.>.&.4.4.4.o.                    ",
"                      ..5.5.;.*.^ ( k.l.L.U...| `  .[ ( ] c.c.D.&.o.&.&.>.2.2._                     ",
"                      ] >.4.2.2.o.> R d.5.5.k.5.@.[ _ $.-.;.-.,.R , O.$.2.4.,.^                     ",
"                      ' f.4.3.4.1.4 X : ` >.k.5.5.>.<.;.-.;.o.c o c 1.;.3.4.,.^                     ",
"                      ` 3.3.4.4.4.o.& O o : U.T.L.7.P.L.Y.4 + X & o.5.5.4.2.2._                     ",
"                      ..3.d.p.3.1.4.R o O # @XrX-X$ `.yX>X# X o R 2.2.f.p.3.3.X.                    ",
"                      6.3.a.r.<.2.2.,.c o # '.3X@X7 '.8X&X@ o R <.2.3.t.D.a.3. .                    ",
"                      ..2.s.y.2.4.;.2.>.! ; D ].].L ^.^.P , { -.2.2.a.D.D.y.;._                     ",
"                      W :.2.3.2.-.1.2.;.h.i.u.V.V.V.V.| | i.;.;.2.2.a.D.C.a.*.Q                     ",
"                      /.9.4.2.:.r.p.;.;.1.h.&.h.i.i.i.&.&.>.;.;.2.2.;.a.a.,.*.W                     ",
"                    %X{.6.2.2.q...r.,.;.;.,.1.4.>.;.>.;.;.=.-.;.;.2.;.;.;.2.+.b.                    ",
"                    1X.X8.2.2.p.C...d.2.{ C ~ %.;.;.2.>.} C Z :.;.2.p.9.2.2.%.n.                    ",
"                    1X X+.2.2.*.r.r.,.:.A z k n | :.@.A z x g E 2.2.9.p.2.2.$.b.oX                  ",
"                    %X/.O.-.*.$.$.*.-.O.h x x k i Z n z x x k Z *.*.@.@.+.$. .v.                    ",
"                      U Q c.S.A.A.S.Z.x.h x l l s d g z x l g b S.[.|. X[.[.z.                      ",
"                      ( z.5XqXwXqX9X8X@Xj l d d u i i d k k a L wXwXwXwXtXwXv.                      ",
"                      ( / =X:X;X;X=X=X'.i d a t P ~.E.i s g t P `.`.`.`.`.'.P                       ",
"                      ) Q K J K D J J F b t y b v D v D n u p F J H F m x.I 2                       ",
"                      ) ! H I M G B.N.N.N.V G I B B v A A V V N.N.N.N.B B H 2                       ",
"                      ) ! v M H B.B.B.B.I I M.B.B B m N.N.N.N.N.B.N.B.B.F M 2                       ",
"                      6.| F M.B.M.B.M.M.I } x.M.B D v H V H H G I V H G V V 5                       ",
"                      ` 7.N v v 1 - 6 - ; ; -           = = - - = +   6 4 4                         ",
"                        ] `           N ,                   T T         3                           ",
"                          3 3         6.[                    .+.                                    ",
"                                      e./                   c.c.                                    ",
"                                      _.~.                  _.+X                                    ",
"                                      `.).                  OXOX                                    ",
"                                      !.r                 8 e w                                     ",
"                                    $ 8 @ .               @ $ e w                                   ",
"                                    :X5X(.8               e ;XeX5X(.                                ",
"                                  ,XrXwX5X~.              ).qXrXqX&X                                ",
"                                  5XqX9X;X                  5X9X5X_.                                ",
"                                    >X,X                    (._.(.                                  "
};
