/* XPM */
static char *_99bf001b0e34755c8d29705d41a720dKL1eyCwIXxaev9rT[] = {
/* columns rows colors chars-per-pixel */
"50 50 103 2 ",
"   c #261D14",
".  c #2C1F15",
"X  c #2E2116",
"o  c #2E2319",
"O  c #322317",
"+  c #33261A",
"@  c #38271A",
"#  c #36291C",
"$  c #3B2C1D",
"%  c #352B22",
"&  c #3C2D21",
"*  c #373027",
"=  c #3E3123",
"-  c #35322C",
";  c #3A352D",
":  c #353531",
">  c #393530",
",  c #3E3A34",
"<  c #3C3D3A",
"1  c #412E1F",
"2  c #43321E",
"3  c #412E20",
"4  c #453322",
"5  c #493624",
"6  c #473825",
"7  c #4B3925",
"8  c #443629",
"9  c #483628",
"0  c #453A2D",
"q  c #4D3C2A",
"w  c #513C26",
"e  c #523E28",
"r  c #443C34",
"t  c #493E32",
"y  c #423E3A",
"u  c #3F413F",
"i  c #554127",
"p  c #554229",
"a  c #58452A",
"s  c #59462C",
"d  c #5B472C",
"f  c #5C492D",
"g  c #5D492E",
"h  c #4C4232",
"j  c #4B4236",
"k  c #44413B",
"l  c #40403D",
"z  c #43413E",
"x  c #484139",
"c  c #48443C",
"v  c #4E493F",
"b  c #564630",
"n  c #584730",
"m  c #594830",
"M  c #414341",
"N  c #444440",
"B  c #414444",
"V  c #444744",
"C  c #494641",
"Z  c #474846",
"A  c #4B4944",
"S  c #4C4A45",
"D  c #434748",
"F  c #434948",
"G  c #454A4B",
"H  c #464B4D",
"J  c #474C4D",
"K  c #4B4B49",
"L  c #4C4C4A",
"P  c #4A4D4C",
"I  c #4F504A",
"U  c #4F514D",
"Y  c #4D5051",
"T  c #4D5354",
"R  c #525553",
"E  c #535655",
"W  c #565957",
"Q  c #525758",
"!  c #535859",
"~  c #55595A",
"^  c #555A5B",
"/  c #565B5B",
"(  c #575C5D",
")  c #595E5F",
"_  c #595E60",
"`  c #5B6062",
"'  c #5C6262",
"]  c #5D6363",
"[  c #5E6464",
"{  c #636767",
"}  c #636867",
"|  c #626768",
" . c #62696A",
".. c #656B6B",
"X. c #696E6F",
"o. c #696F70",
"O. c #6C7273",
"+. c #6D7273",
"@. c #6E7374",
"#. c #707776",
"$. c #727778",
"%. c #747A7A",
"&. c #747A7B",
/* pixels */
"3 4 5 q w e p p p i i i i s a s g i 2 = I &.) T ` Y H ~ K % + & 4 4 4 4 5 4 4 q w p a 7 1 w p p 4 3 ",
"4 4 4 4 4 4 4 3 & & & & & & $ $ $ X X , O.o.D B ~ J ! H - o X @ 4 4 4 5 5 4 4 7 w p a 7 1 7 p p 4 4 ",
"p p p p p p p p p p p i w e e 4 @ o - ~ ~ V , % l F P ( P - o X @ & 5 5 5 4 4 7 w p a 5 3 w p p 4 5 ",
"p p p i i i a a a a a a a a p 2 $ , } ' M h p q r y l ~ ' E > o X O 4 5 5 4 4 q w p a 5 4 w i p 4 q ",
"w 7 w w w p p p p p a a s p 2 $ r { o.L j p p p q 4 = , Z ~ { , o . @ 4 5 4 4 q e p a 5 4 w i p 4 e ",
"1 1 3 4 4 5 5 5 5 5 7 7 5 $ O % W o.Y r 5 5 5 7 7 5 % 4 0 N  .[ , o O @ 4 4 7 q i a a 5 5 p i p 4 e ",
"7 7 5 5 5 5 5 5 5 4 4 5 $ O + K X.Y c q 7 7 7 7 7 4 % 4 6 0 C ( { l + O @ $ 7 w p a s 5 5 p a p 4 p ",
"a a a a a a s s s s p 5 $ $ S O.( c p p p w e i 7 4 $ 5 7 7 8 l ( O.L % O O 4 e p a s 5 5 p a p 3 p ",
"p p p p p a a a a s 7 $ $ c O.` A m g s a a i a q 4 % 5 7 7 5 8 y ) X.R % X $ 5 p a s 5 5 p a p & p ",
"w w w w e i p p p 5 $ $ x { E x p a p p p p p p q 4 % 5 7 7 4 4 4 y P O.R % @ $ 5 s s 5 5 p a i & i ",
"q 7 7 q q q w e 4 $ @ k X.[ c e e e w e e w w w 7 = % 5 7 5 4 4 3 8 r R @.Y ; $ $ 7 a 5 7 a a i & i ",
"4 4 4 4 5 7 7 4 $ @ ; [  .C q w w w w w w w w w 7 = % 5 5 5 4 4 3 4 5 t R  .[ k $ $ 5 5 7 a a i & i ",
"4 4 4 4 4 4 $ O X % Y  .Z 0 7 7 7 7 7 7 7 7 7 7 7 = % 5 7 5 4 4 4 5 5 7 0 Z  .X.x $ $ $ 5 s a w & a ",
"5 5 5 5 5 4 @ O % R @.R 0 4 4 4 5 5 5 5 5 7 7 7 7 = % 6 7 5 4 3 4 5 5 7 5 0 C [ { c $ O $ p a e 3 s ",
"5 5 5 5 4 @ O % R O.R t 7 7 7 5 5 5 5 7 5 5 5 7 5 % % 7 7 5 4 4 4 5 5 7 5 7 q c E X.S + O 2 i q $ a ",
"4 5 5 4 @ O + L X.P r 5 5 5 5 5 5 4 5 5 5 5 5 7 7 % % 7 7 5 4 3 4 4 5 5 4 7 w e x ` O.K % $ 2 4 $ s ",
"4 4 & O . o l @.) y 8 4 5 5 5 4 4 4 4 4 4 4 4 4 5 # % 6 7 5 4 3 4 4 5 5 4 7 w e p A ( X.W r $ @ $ g ",
"4 4 @ X o , { ) y 4 3 3 4 4 4 4 4 4 4 4 4 4 4 4 5 + % 7 7 5 4 3 4 4 4 5 5 7 w e p m c Y o.| , o X i ",
"& @ X o , ' ( l 8 4 4 4 4 3 4 3 3 3 4 4 4 4 5 4 4 + & 7 7 5 4 4 4 4 5 5 5 7 w w p g p c Y X.} - X 2 ",
"O X o > {  .C 8 4 4 4 4 4 4 4 4 3 3 4 3 $ 4 4 4 = + 4 7 7 4 1 4 4 4 5 5 5 7 w e p s p q r L ` ~ , = ",
"% o - E ( N 0 7 7 7 5 5 5 5 5 5 5 5 5 4 4 4 4 4 = + 4 7 7 5 1 4 5 4 5 5 5 7 w w p a p 7 5 j M ~ O.I ",
"V - P ` Z 0 6 7 7 7 7 7 7 7 7 7 7 7 7 7 7 7 7 7 = + 4 7 7 4 1 4 4 4 5 5 5 7 7 w p a w 7 5 p h V o.&.",
"! G _ ~ r 4 4 5 5 5 5 5 5 6 7 7 7 7 7 7 7 6 7 5 % + 5 7 7 4 1 4 5 4 5 7 7 7 7 w p p e 7 5 p p ; D ) ",
"J ! P k % % % # % % % % $ $ $ % % & = 4 4 4 5 5 % # 5 5 5 4 4 4 5 4 7 7 7 w 7 w p a i 7 7 p q % B T ",
"< P ( L y 8 4 4 4 4 = = % & = 4 4 4 $ $ 5 5 5 4 & % 4 4 & $ # # $ $ & 3 4 4 4 5 7 7 7 7 5 q 8 , Y Q ",
"B ~ ..P ; = 5 4 4 4 5 5 4 5 q e a a 4 5 p p e & 5 5 5 4 4 4 = % % % % % % % % % % % $ % % = M P ! G ",
"P T B % o O 4 4 4 5 5 5 4 7 q p a a 3 5 e p e 3 7 5 7 7 6 7 6 6 7 6 5 5 5 5 5 5 5 4 4 4 = r ) ~ J ~ ",
"J E B % o X @ = 4 5 5 4 4 7 w w p p 3 4 p p w 3 7 5 7 7 7 7 7 7 7 7 7 7 7 7 7 7 7 7 6 6 t L [ K : P ",
"u E | R ; o X O & 5 5 5 4 7 w w p i 3 5 i p w 4 7 4 4 5 5 4 5 5 5 5 5 5 5 5 5 7 7 7 7 0 M ~ E - o - ",
"8 , U ~ ) , o X O 4 5 5 2 7 w i a i 4 5 i i q 4 7 4 1 4 1 1 4 4 4 4 4 4 4 4 4 4 5 5 0 Z  .[ ; o X O ",
"= % 0 l ' | y o X @ 4 5 4 7 w p a i 4 7 i p 7 4 q 4 4 4 4 4 4 1 1 3 4 4 4 4 4 4 4 8 N ` [ < o X O $ ",
"= % 6 0 N [ ' y + O $ 4 4 q w p a i 4 w p p 7 5 w 4 5 4 4 4 4 4 4 4 4 4 1 3 3 3 8 l ~ ' y O X O & 4 ",
"= % 6 7 0 l ! o.Z % O @ $ q i a a e 4 e a a 7 5 i 4 4 4 4 4 4 4 4 4 4 5 5 4 4 4 y ' O.y o . O $ 4 4 ",
"% & 7 7 5 8 y ) O.R % X @ 4 i a s e 4 e a a 5 5 p 5 5 5 4 5 5 4 4 4 5 5 5 5 9 r T O.K + X O $ 4 4 4 ",
"% = 7 7 5 4 8 y E  .W % O $ 4 p g e 4 e p a 5 4 p 7 7 7 5 5 5 5 5 7 7 7 5 5 t Y X.R % O @ 3 5 5 5 4 ",
"% 4 7 7 5 4 4 3 r P #.R % @ $ 5 s w 4 e a a 5 4 e 7 5 5 5 5 5 5 5 5 5 7 7 t W &.W % O @ 4 5 5 5 5 5 ",
"% = 5 7 5 4 4 3 5 r R X.~ y $ $ 5 q 5 p a a 5 5 i 7 7 7 7 7 7 5 5 5 5 4 0 P X.Y % X O $ 5 5 5 5 5 5 ",
"% = 5 7 5 4 3 4 5 5 t L { X.l $ $ 4 4 p a p 4 5 i 7 7 w w w w w w w 7 q N | ~ * O O $ 4 4 4 4 4 4 4 ",
"% = 7 7 4 4 1 4 5 5 7 8 N  .X.c $ @ @ e s a 4 7 i w w w w w w e e e q c ..X.y @ $ 4 q q q 7 7 7 7 7 ",
"+ 4 7 7 5 4 4 4 5 7 7 4 q c ~ ..A # O 2 p a 4 7 a w e e e e e p p p x ) X.c $ $ 4 e i w w q 7 7 q q ",
"+ 4 7 7 4 4 4 4 5 5 5 5 7 e x ~ @.L + @ 2 q & 5 s p a a a a s s b c ~ ..c $ $ 5 p a p p p i w w i e ",
"+ 4 7 7 4 3 4 4 4 5 5 5 7 w p c ` O.R ; $ $ @ 7 g p p p a s g m A ' @.A $ $ 5 a g s a a a a p p p a ",
"+ 5 7 7 4 1 4 4 4 5 5 5 w e p b v T X.[ y # . 7 s e e e w e p c Q O.L % $ 2 q i p p p p p p p p a a ",
"+ 5 7 7 4 1 4 4 4 5 5 5 w w i s g c Y X...,   $ 7 5 5 5 5 5 x T X.R % O @ 4 5 4 4 4 4 4 4 4 4 4 4 4 ",
"# 5 7 5 4 3 4 4 5 5 5 5 w w e s s e r G X.) : $ 5 q q 7 7 t P o.' ; @ $ 7 e e 7 7 7 7 7 5 5 5 4 3 3 ",
"# 6 7 5 4 3 4 4 4 5 5 7 w w e a a e 5 t Z Y { C q a p p j L O.X.k $ 2 i s s a a p p a p p i i w w e ",
"% 6 6 5 4 4 4 4 4 5 5 7 w w e a p w 5 e j l | &.v 7 i h u ~  .y $ $ q a a a a a a a a p i i i p p e ",
"= 5 6 5 4 4 5 4 5 7 5 7 7 w e a p e 5 e p h G | E % ; Z ) ) : o O $ 5 q w w e e e i i e p p p p p p ",
"4 5 5 4 4 4 4 4 5 7 5 7 7 7 w p p e 5 i a 5 - F ~ G B X.$.l X O $ & $ & 3 $ & & & & 3 4 4 4 4 4 4 4 ",
"q q q q q q q q q e e i p p p m n p q b b 4 V ' ' T ( &.R = 2 w g g s s s a i i i i a p p e e 7 4 4 "
};
